<?xml version="1.0" encoding="utf-8" standalone="no"?>
<!DOCTYPE svg PUBLIC "-//W3C//DTD SVG 1.1//EN"
  "http://www.w3.org/Graphics/SVG/1.1/DTD/svg11.dtd">
<svg xmlns:xlink="http://www.w3.org/1999/xlink" width="852.560937pt" height="420.729687pt" viewBox="0 0 852.560937 420.729687" xmlns="http://www.w3.org/2000/svg" version="1.1">
 <metadata>
  <rdf:RDF xmlns:dc="http://purl.org/dc/elements/1.1/" xmlns:cc="http://creativecommons.org/ns#" xmlns:rdf="http://www.w3.org/1999/02/22-rdf-syntax-ns#">
   <cc:Work>
    <dc:type rdf:resource="http://purl.org/dc/dcmitype/StillImage"/>
    <dc:date>2025-12-30T19:35:52.180498</dc:date>
    <dc:format>image/svg+xml</dc:format>
    <dc:creator>
     <cc:Agent>
      <dc:title>Matplotlib v3.10.8, https://matplotlib.org/</dc:title>
     </cc:Agent>
    </dc:creator>
   </cc:Work>
  </rdf:RDF>
 </metadata>
 <defs>
  <style type="text/css">*{stroke-linejoin: round; stroke-linecap: butt}</style>
 </defs>
 <g id="figure_1">
  <g id="patch_1">
   <path d="M 0 420.729687 
L 852.560937 420.729687 
L 852.560937 0 
L 0 0 
z
" style="fill: #ffffff"/>
  </g>
  <g id="axes_1">
   <g id="patch_2">
    <path d="M 57.280938 381.237812 
L 845.360937 381.237812 
L 845.360937 23.837812 
L 57.280938 23.837812 
z
" style="fill: #ffffff"/>
   </g>
   <g id="matplotlib.axis_1">
    <g id="xtick_1">
     <g id="line2d_1">
      <path d="M 93.102756 381.237812 
L 93.102756 23.837812 
" clip-path="url(#p40f82b0d93)" style="fill: none; stroke: #b0b0b0; stroke-opacity: 0.3; stroke-width: 0.8; stroke-linecap: square"/>
     </g>
     <g id="line2d_2">
      <defs>
       <path id="m68694c7014" d="M 0 0 
L 0 3.5 
" style="stroke: #000000; stroke-width: 0.8"/>
      </defs>
      <g>
       <use xlink:href="#m68694c7014" x="93.102756" y="381.237812" style="stroke: #000000; stroke-width: 0.8"/>
      </g>
     </g>
     <g id="text_1">
      <!-- 0 -->
      <g transform="translate(89.921506 395.83625) scale(0.1 -0.1)">
       <defs>
        <path id="DejaVuSans-30" d="M 2034 4250 
Q 1547 4250 1301 3770 
Q 1056 3291 1056 2328 
Q 1056 1369 1301 889 
Q 1547 409 2034 409 
Q 2525 409 2770 889 
Q 3016 1369 3016 2328 
Q 3016 3291 2770 3770 
Q 2525 4250 2034 4250 
z
M 2034 4750 
Q 2819 4750 3233 4129 
Q 3647 3509 3647 2328 
Q 3647 1150 3233 529 
Q 2819 -91 2034 -91 
Q 1250 -91 836 529 
Q 422 1150 422 2328 
Q 422 3509 836 4129 
Q 1250 4750 2034 4750 
z
" transform="scale(0.015625)"/>
       </defs>
       <use xlink:href="#DejaVuSans-30"/>
      </g>
     </g>
    </g>
    <g id="xtick_2">
     <g id="line2d_3">
      <path d="M 210.55134 381.237812 
L 210.55134 23.837812 
" clip-path="url(#p40f82b0d93)" style="fill: none; stroke: #b0b0b0; stroke-opacity: 0.3; stroke-width: 0.8; stroke-linecap: square"/>
     </g>
     <g id="line2d_4">
      <g>
       <use xlink:href="#m68694c7014" x="210.55134" y="381.237812" style="stroke: #000000; stroke-width: 0.8"/>
      </g>
     </g>
     <g id="text_2">
      <!-- 10 -->
      <g transform="translate(204.18884 395.83625) scale(0.1 -0.1)">
       <defs>
        <path id="DejaVuSans-31" d="M 794 531 
L 1825 531 
L 1825 4091 
L 703 3866 
L 703 4441 
L 1819 4666 
L 2450 4666 
L 2450 531 
L 3481 531 
L 3481 0 
L 794 0 
L 794 531 
z
" transform="scale(0.015625)"/>
       </defs>
       <use xlink:href="#DejaVuSans-31"/>
       <use xlink:href="#DejaVuSans-30" transform="translate(63.623047 0)"/>
      </g>
     </g>
    </g>
    <g id="xtick_3">
     <g id="line2d_5">
      <path d="M 327.999924 381.237812 
L 327.999924 23.837812 
" clip-path="url(#p40f82b0d93)" style="fill: none; stroke: #b0b0b0; stroke-opacity: 0.3; stroke-width: 0.8; stroke-linecap: square"/>
     </g>
     <g id="line2d_6">
      <g>
       <use xlink:href="#m68694c7014" x="327.999924" y="381.237812" style="stroke: #000000; stroke-width: 0.8"/>
      </g>
     </g>
     <g id="text_3">
      <!-- 20 -->
      <g transform="translate(321.637424 395.83625) scale(0.1 -0.1)">
       <defs>
        <path id="DejaVuSans-32" d="M 1228 531 
L 3431 531 
L 3431 0 
L 469 0 
L 469 531 
Q 828 903 1448 1529 
Q 2069 2156 2228 2338 
Q 2531 2678 2651 2914 
Q 2772 3150 2772 3378 
Q 2772 3750 2511 3984 
Q 2250 4219 1831 4219 
Q 1534 4219 1204 4116 
Q 875 4013 500 3803 
L 500 4441 
Q 881 4594 1212 4672 
Q 1544 4750 1819 4750 
Q 2544 4750 2975 4387 
Q 3406 4025 3406 3419 
Q 3406 3131 3298 2873 
Q 3191 2616 2906 2266 
Q 2828 2175 2409 1742 
Q 1991 1309 1228 531 
z
" transform="scale(0.015625)"/>
       </defs>
       <use xlink:href="#DejaVuSans-32"/>
       <use xlink:href="#DejaVuSans-30" transform="translate(63.623047 0)"/>
      </g>
     </g>
    </g>
    <g id="xtick_4">
     <g id="line2d_7">
      <path d="M 445.448508 381.237812 
L 445.448508 23.837812 
" clip-path="url(#p40f82b0d93)" style="fill: none; stroke: #b0b0b0; stroke-opacity: 0.3; stroke-width: 0.8; stroke-linecap: square"/>
     </g>
     <g id="line2d_8">
      <g>
       <use xlink:href="#m68694c7014" x="445.448508" y="381.237812" style="stroke: #000000; stroke-width: 0.8"/>
      </g>
     </g>
     <g id="text_4">
      <!-- 30 -->
      <g transform="translate(439.086008 395.83625) scale(0.1 -0.1)">
       <defs>
        <path id="DejaVuSans-33" d="M 2597 2516 
Q 3050 2419 3304 2112 
Q 3559 1806 3559 1356 
Q 3559 666 3084 287 
Q 2609 -91 1734 -91 
Q 1441 -91 1130 -33 
Q 819 25 488 141 
L 488 750 
Q 750 597 1062 519 
Q 1375 441 1716 441 
Q 2309 441 2620 675 
Q 2931 909 2931 1356 
Q 2931 1769 2642 2001 
Q 2353 2234 1838 2234 
L 1294 2234 
L 1294 2753 
L 1863 2753 
Q 2328 2753 2575 2939 
Q 2822 3125 2822 3475 
Q 2822 3834 2567 4026 
Q 2313 4219 1838 4219 
Q 1578 4219 1281 4162 
Q 984 4106 628 3988 
L 628 4550 
Q 988 4650 1302 4700 
Q 1616 4750 1894 4750 
Q 2613 4750 3031 4423 
Q 3450 4097 3450 3541 
Q 3450 3153 3228 2886 
Q 3006 2619 2597 2516 
z
" transform="scale(0.015625)"/>
       </defs>
       <use xlink:href="#DejaVuSans-33"/>
       <use xlink:href="#DejaVuSans-30" transform="translate(63.623047 0)"/>
      </g>
     </g>
    </g>
    <g id="xtick_5">
     <g id="line2d_9">
      <path d="M 562.897092 381.237812 
L 562.897092 23.837812 
" clip-path="url(#p40f82b0d93)" style="fill: none; stroke: #b0b0b0; stroke-opacity: 0.3; stroke-width: 0.8; stroke-linecap: square"/>
     </g>
     <g id="line2d_10">
      <g>
       <use xlink:href="#m68694c7014" x="562.897092" y="381.237812" style="stroke: #000000; stroke-width: 0.8"/>
      </g>
     </g>
     <g id="text_5">
      <!-- 40 -->
      <g transform="translate(556.534592 395.83625) scale(0.1 -0.1)">
       <defs>
        <path id="DejaVuSans-34" d="M 2419 4116 
L 825 1625 
L 2419 1625 
L 2419 4116 
z
M 2253 4666 
L 3047 4666 
L 3047 1625 
L 3713 1625 
L 3713 1100 
L 3047 1100 
L 3047 0 
L 2419 0 
L 2419 1100 
L 313 1100 
L 313 1709 
L 2253 4666 
z
" transform="scale(0.015625)"/>
       </defs>
       <use xlink:href="#DejaVuSans-34"/>
       <use xlink:href="#DejaVuSans-30" transform="translate(63.623047 0)"/>
      </g>
     </g>
    </g>
    <g id="xtick_6">
     <g id="line2d_11">
      <path d="M 680.345677 381.237812 
L 680.345677 23.837812 
" clip-path="url(#p40f82b0d93)" style="fill: none; stroke: #b0b0b0; stroke-opacity: 0.3; stroke-width: 0.8; stroke-linecap: square"/>
     </g>
     <g id="line2d_12">
      <g>
       <use xlink:href="#m68694c7014" x="680.345677" y="381.237812" style="stroke: #000000; stroke-width: 0.8"/>
      </g>
     </g>
     <g id="text_6">
      <!-- 50 -->
      <g transform="translate(673.983177 395.83625) scale(0.1 -0.1)">
       <defs>
        <path id="DejaVuSans-35" d="M 691 4666 
L 3169 4666 
L 3169 4134 
L 1269 4134 
L 1269 2991 
Q 1406 3038 1543 3061 
Q 1681 3084 1819 3084 
Q 2600 3084 3056 2656 
Q 3513 2228 3513 1497 
Q 3513 744 3044 326 
Q 2575 -91 1722 -91 
Q 1428 -91 1123 -41 
Q 819 9 494 109 
L 494 744 
Q 775 591 1075 516 
Q 1375 441 1709 441 
Q 2250 441 2565 725 
Q 2881 1009 2881 1497 
Q 2881 1984 2565 2268 
Q 2250 2553 1709 2553 
Q 1456 2553 1204 2497 
Q 953 2441 691 2322 
L 691 4666 
z
" transform="scale(0.015625)"/>
       </defs>
       <use xlink:href="#DejaVuSans-35"/>
       <use xlink:href="#DejaVuSans-30" transform="translate(63.623047 0)"/>
      </g>
     </g>
    </g>
    <g id="xtick_7">
     <g id="line2d_13">
      <path d="M 797.794261 381.237812 
L 797.794261 23.837812 
" clip-path="url(#p40f82b0d93)" style="fill: none; stroke: #b0b0b0; stroke-opacity: 0.3; stroke-width: 0.8; stroke-linecap: square"/>
     </g>
     <g id="line2d_14">
      <g>
       <use xlink:href="#m68694c7014" x="797.794261" y="381.237812" style="stroke: #000000; stroke-width: 0.8"/>
      </g>
     </g>
     <g id="text_7">
      <!-- 60 -->
      <g transform="translate(791.431761 395.83625) scale(0.1 -0.1)">
       <defs>
        <path id="DejaVuSans-36" d="M 2113 2584 
Q 1688 2584 1439 2293 
Q 1191 2003 1191 1497 
Q 1191 994 1439 701 
Q 1688 409 2113 409 
Q 2538 409 2786 701 
Q 3034 994 3034 1497 
Q 3034 2003 2786 2293 
Q 2538 2584 2113 2584 
z
M 3366 4563 
L 3366 3988 
Q 3128 4100 2886 4159 
Q 2644 4219 2406 4219 
Q 1781 4219 1451 3797 
Q 1122 3375 1075 2522 
Q 1259 2794 1537 2939 
Q 1816 3084 2150 3084 
Q 2853 3084 3261 2657 
Q 3669 2231 3669 1497 
Q 3669 778 3244 343 
Q 2819 -91 2113 -91 
Q 1303 -91 875 529 
Q 447 1150 447 2328 
Q 447 3434 972 4092 
Q 1497 4750 2381 4750 
Q 2619 4750 2861 4703 
Q 3103 4656 3366 4563 
z
" transform="scale(0.015625)"/>
       </defs>
       <use xlink:href="#DejaVuSans-36"/>
       <use xlink:href="#DejaVuSans-30" transform="translate(63.623047 0)"/>
      </g>
     </g>
    </g>
    <g id="text_8">
     <!-- Layer -->
     <g transform="translate(434.59125 411.034062) scale(0.12 -0.12)">
      <defs>
       <path id="DejaVuSans-4c" d="M 628 4666 
L 1259 4666 
L 1259 531 
L 3531 531 
L 3531 0 
L 628 0 
L 628 4666 
z
" transform="scale(0.015625)"/>
       <path id="DejaVuSans-61" d="M 2194 1759 
Q 1497 1759 1228 1600 
Q 959 1441 959 1056 
Q 959 750 1161 570 
Q 1363 391 1709 391 
Q 2188 391 2477 730 
Q 2766 1069 2766 1631 
L 2766 1759 
L 2194 1759 
z
M 3341 1997 
L 3341 0 
L 2766 0 
L 2766 531 
Q 2569 213 2275 61 
Q 1981 -91 1556 -91 
Q 1019 -91 701 211 
Q 384 513 384 1019 
Q 384 1609 779 1909 
Q 1175 2209 1959 2209 
L 2766 2209 
L 2766 2266 
Q 2766 2663 2505 2880 
Q 2244 3097 1772 3097 
Q 1472 3097 1187 3025 
Q 903 2953 641 2809 
L 641 3341 
Q 956 3463 1253 3523 
Q 1550 3584 1831 3584 
Q 2591 3584 2966 3190 
Q 3341 2797 3341 1997 
z
" transform="scale(0.015625)"/>
       <path id="DejaVuSans-79" d="M 2059 -325 
Q 1816 -950 1584 -1140 
Q 1353 -1331 966 -1331 
L 506 -1331 
L 506 -850 
L 844 -850 
Q 1081 -850 1212 -737 
Q 1344 -625 1503 -206 
L 1606 56 
L 191 3500 
L 800 3500 
L 1894 763 
L 2988 3500 
L 3597 3500 
L 2059 -325 
z
" transform="scale(0.015625)"/>
       <path id="DejaVuSans-65" d="M 3597 1894 
L 3597 1613 
L 953 1613 
Q 991 1019 1311 708 
Q 1631 397 2203 397 
Q 2534 397 2845 478 
Q 3156 559 3463 722 
L 3463 178 
Q 3153 47 2828 -22 
Q 2503 -91 2169 -91 
Q 1331 -91 842 396 
Q 353 884 353 1716 
Q 353 2575 817 3079 
Q 1281 3584 2069 3584 
Q 2775 3584 3186 3129 
Q 3597 2675 3597 1894 
z
M 3022 2063 
Q 3016 2534 2758 2815 
Q 2500 3097 2075 3097 
Q 1594 3097 1305 2825 
Q 1016 2553 972 2059 
L 3022 2063 
z
" transform="scale(0.015625)"/>
       <path id="DejaVuSans-72" d="M 2631 2963 
Q 2534 3019 2420 3045 
Q 2306 3072 2169 3072 
Q 1681 3072 1420 2755 
Q 1159 2438 1159 1844 
L 1159 0 
L 581 0 
L 581 3500 
L 1159 3500 
L 1159 2956 
Q 1341 3275 1631 3429 
Q 1922 3584 2338 3584 
Q 2397 3584 2469 3576 
Q 2541 3569 2628 3553 
L 2631 2963 
z
" transform="scale(0.015625)"/>
      </defs>
      <use xlink:href="#DejaVuSans-4c"/>
      <use xlink:href="#DejaVuSans-61" transform="translate(55.712891 0)"/>
      <use xlink:href="#DejaVuSans-79" transform="translate(116.992188 0)"/>
      <use xlink:href="#DejaVuSans-65" transform="translate(176.171875 0)"/>
      <use xlink:href="#DejaVuSans-72" transform="translate(237.695312 0)"/>
     </g>
    </g>
   </g>
   <g id="matplotlib.axis_2">
    <g id="ytick_1">
     <g id="line2d_15">
      <path d="M 57.280938 333.447786 
L 845.360937 333.447786 
" clip-path="url(#p40f82b0d93)" style="fill: none; stroke: #b0b0b0; stroke-opacity: 0.3; stroke-width: 0.8; stroke-linecap: square"/>
     </g>
     <g id="line2d_16">
      <defs>
       <path id="m61099f1bfd" d="M 0 0 
L -3.5 0 
" style="stroke: #000000; stroke-width: 0.8"/>
      </defs>
      <g>
       <use xlink:href="#m61099f1bfd" x="57.280938" y="333.447786" style="stroke: #000000; stroke-width: 0.8"/>
      </g>
     </g>
     <g id="text_9">
      <!-- −100 -->
      <g transform="translate(22.81375 337.247005) scale(0.1 -0.1)">
       <defs>
        <path id="DejaVuSans-2212" d="M 678 2272 
L 4684 2272 
L 4684 1741 
L 678 1741 
L 678 2272 
z
" transform="scale(0.015625)"/>
       </defs>
       <use xlink:href="#DejaVuSans-2212"/>
       <use xlink:href="#DejaVuSans-31" transform="translate(83.789062 0)"/>
       <use xlink:href="#DejaVuSans-30" transform="translate(147.412109 0)"/>
       <use xlink:href="#DejaVuSans-30" transform="translate(211.035156 0)"/>
      </g>
     </g>
    </g>
    <g id="ytick_2">
     <g id="line2d_17">
      <path d="M 57.280938 254.586356 
L 845.360937 254.586356 
" clip-path="url(#p40f82b0d93)" style="fill: none; stroke: #b0b0b0; stroke-opacity: 0.3; stroke-width: 0.8; stroke-linecap: square"/>
     </g>
     <g id="line2d_18">
      <g>
       <use xlink:href="#m61099f1bfd" x="57.280938" y="254.586356" style="stroke: #000000; stroke-width: 0.8"/>
      </g>
     </g>
     <g id="text_10">
      <!-- 0 -->
      <g transform="translate(43.918438 258.385575) scale(0.1 -0.1)">
       <use xlink:href="#DejaVuSans-30"/>
      </g>
     </g>
    </g>
    <g id="ytick_3">
     <g id="line2d_19">
      <path d="M 57.280938 175.724926 
L 845.360937 175.724926 
" clip-path="url(#p40f82b0d93)" style="fill: none; stroke: #b0b0b0; stroke-opacity: 0.3; stroke-width: 0.8; stroke-linecap: square"/>
     </g>
     <g id="line2d_20">
      <g>
       <use xlink:href="#m61099f1bfd" x="57.280938" y="175.724926" style="stroke: #000000; stroke-width: 0.8"/>
      </g>
     </g>
     <g id="text_11">
      <!-- 100 -->
      <g transform="translate(31.193438 179.524145) scale(0.1 -0.1)">
       <use xlink:href="#DejaVuSans-31"/>
       <use xlink:href="#DejaVuSans-30" transform="translate(63.623047 0)"/>
       <use xlink:href="#DejaVuSans-30" transform="translate(127.246094 0)"/>
      </g>
     </g>
    </g>
    <g id="ytick_4">
     <g id="line2d_21">
      <path d="M 57.280938 96.863497 
L 845.360937 96.863497 
" clip-path="url(#p40f82b0d93)" style="fill: none; stroke: #b0b0b0; stroke-opacity: 0.3; stroke-width: 0.8; stroke-linecap: square"/>
     </g>
     <g id="line2d_22">
      <g>
       <use xlink:href="#m61099f1bfd" x="57.280938" y="96.863497" style="stroke: #000000; stroke-width: 0.8"/>
      </g>
     </g>
     <g id="text_12">
      <!-- 200 -->
      <g transform="translate(31.193438 100.662715) scale(0.1 -0.1)">
       <use xlink:href="#DejaVuSans-32"/>
       <use xlink:href="#DejaVuSans-30" transform="translate(63.623047 0)"/>
       <use xlink:href="#DejaVuSans-30" transform="translate(127.246094 0)"/>
      </g>
     </g>
    </g>
    <g id="text_13">
     <!-- MLP Logit Contribution -->
     <g transform="translate(16.318125 270.480312) rotate(-90) scale(0.12 -0.12)">
      <defs>
       <path id="DejaVuSans-4d" d="M 628 4666 
L 1569 4666 
L 2759 1491 
L 3956 4666 
L 4897 4666 
L 4897 0 
L 4281 0 
L 4281 4097 
L 3078 897 
L 2444 897 
L 1241 4097 
L 1241 0 
L 628 0 
L 628 4666 
z
" transform="scale(0.015625)"/>
       <path id="DejaVuSans-50" d="M 1259 4147 
L 1259 2394 
L 2053 2394 
Q 2494 2394 2734 2622 
Q 2975 2850 2975 3272 
Q 2975 3691 2734 3919 
Q 2494 4147 2053 4147 
L 1259 4147 
z
M 628 4666 
L 2053 4666 
Q 2838 4666 3239 4311 
Q 3641 3956 3641 3272 
Q 3641 2581 3239 2228 
Q 2838 1875 2053 1875 
L 1259 1875 
L 1259 0 
L 628 0 
L 628 4666 
z
" transform="scale(0.015625)"/>
       <path id="DejaVuSans-20" transform="scale(0.015625)"/>
       <path id="DejaVuSans-6f" d="M 1959 3097 
Q 1497 3097 1228 2736 
Q 959 2375 959 1747 
Q 959 1119 1226 758 
Q 1494 397 1959 397 
Q 2419 397 2687 759 
Q 2956 1122 2956 1747 
Q 2956 2369 2687 2733 
Q 2419 3097 1959 3097 
z
M 1959 3584 
Q 2709 3584 3137 3096 
Q 3566 2609 3566 1747 
Q 3566 888 3137 398 
Q 2709 -91 1959 -91 
Q 1206 -91 779 398 
Q 353 888 353 1747 
Q 353 2609 779 3096 
Q 1206 3584 1959 3584 
z
" transform="scale(0.015625)"/>
       <path id="DejaVuSans-67" d="M 2906 1791 
Q 2906 2416 2648 2759 
Q 2391 3103 1925 3103 
Q 1463 3103 1205 2759 
Q 947 2416 947 1791 
Q 947 1169 1205 825 
Q 1463 481 1925 481 
Q 2391 481 2648 825 
Q 2906 1169 2906 1791 
z
M 3481 434 
Q 3481 -459 3084 -895 
Q 2688 -1331 1869 -1331 
Q 1566 -1331 1297 -1286 
Q 1028 -1241 775 -1147 
L 775 -588 
Q 1028 -725 1275 -790 
Q 1522 -856 1778 -856 
Q 2344 -856 2625 -561 
Q 2906 -266 2906 331 
L 2906 616 
Q 2728 306 2450 153 
Q 2172 0 1784 0 
Q 1141 0 747 490 
Q 353 981 353 1791 
Q 353 2603 747 3093 
Q 1141 3584 1784 3584 
Q 2172 3584 2450 3431 
Q 2728 3278 2906 2969 
L 2906 3500 
L 3481 3500 
L 3481 434 
z
" transform="scale(0.015625)"/>
       <path id="DejaVuSans-69" d="M 603 3500 
L 1178 3500 
L 1178 0 
L 603 0 
L 603 3500 
z
M 603 4863 
L 1178 4863 
L 1178 4134 
L 603 4134 
L 603 4863 
z
" transform="scale(0.015625)"/>
       <path id="DejaVuSans-74" d="M 1172 4494 
L 1172 3500 
L 2356 3500 
L 2356 3053 
L 1172 3053 
L 1172 1153 
Q 1172 725 1289 603 
Q 1406 481 1766 481 
L 2356 481 
L 2356 0 
L 1766 0 
Q 1100 0 847 248 
Q 594 497 594 1153 
L 594 3053 
L 172 3053 
L 172 3500 
L 594 3500 
L 594 4494 
L 1172 4494 
z
" transform="scale(0.015625)"/>
       <path id="DejaVuSans-43" d="M 4122 4306 
L 4122 3641 
Q 3803 3938 3442 4084 
Q 3081 4231 2675 4231 
Q 1875 4231 1450 3742 
Q 1025 3253 1025 2328 
Q 1025 1406 1450 917 
Q 1875 428 2675 428 
Q 3081 428 3442 575 
Q 3803 722 4122 1019 
L 4122 359 
Q 3791 134 3420 21 
Q 3050 -91 2638 -91 
Q 1578 -91 968 557 
Q 359 1206 359 2328 
Q 359 3453 968 4101 
Q 1578 4750 2638 4750 
Q 3056 4750 3426 4639 
Q 3797 4528 4122 4306 
z
" transform="scale(0.015625)"/>
       <path id="DejaVuSans-6e" d="M 3513 2113 
L 3513 0 
L 2938 0 
L 2938 2094 
Q 2938 2591 2744 2837 
Q 2550 3084 2163 3084 
Q 1697 3084 1428 2787 
Q 1159 2491 1159 1978 
L 1159 0 
L 581 0 
L 581 3500 
L 1159 3500 
L 1159 2956 
Q 1366 3272 1645 3428 
Q 1925 3584 2291 3584 
Q 2894 3584 3203 3211 
Q 3513 2838 3513 2113 
z
" transform="scale(0.015625)"/>
       <path id="DejaVuSans-62" d="M 3116 1747 
Q 3116 2381 2855 2742 
Q 2594 3103 2138 3103 
Q 1681 3103 1420 2742 
Q 1159 2381 1159 1747 
Q 1159 1113 1420 752 
Q 1681 391 2138 391 
Q 2594 391 2855 752 
Q 3116 1113 3116 1747 
z
M 1159 2969 
Q 1341 3281 1617 3432 
Q 1894 3584 2278 3584 
Q 2916 3584 3314 3078 
Q 3713 2572 3713 1747 
Q 3713 922 3314 415 
Q 2916 -91 2278 -91 
Q 1894 -91 1617 61 
Q 1341 213 1159 525 
L 1159 0 
L 581 0 
L 581 4863 
L 1159 4863 
L 1159 2969 
z
" transform="scale(0.015625)"/>
       <path id="DejaVuSans-75" d="M 544 1381 
L 544 3500 
L 1119 3500 
L 1119 1403 
Q 1119 906 1312 657 
Q 1506 409 1894 409 
Q 2359 409 2629 706 
Q 2900 1003 2900 1516 
L 2900 3500 
L 3475 3500 
L 3475 0 
L 2900 0 
L 2900 538 
Q 2691 219 2414 64 
Q 2138 -91 1772 -91 
Q 1169 -91 856 284 
Q 544 659 544 1381 
z
M 1991 3584 
L 1991 3584 
z
" transform="scale(0.015625)"/>
      </defs>
      <use xlink:href="#DejaVuSans-4d"/>
      <use xlink:href="#DejaVuSans-4c" transform="translate(86.279297 0)"/>
      <use xlink:href="#DejaVuSans-50" transform="translate(141.992188 0)"/>
      <use xlink:href="#DejaVuSans-20" transform="translate(202.294922 0)"/>
      <use xlink:href="#DejaVuSans-4c" transform="translate(234.082031 0)"/>
      <use xlink:href="#DejaVuSans-6f" transform="translate(288.044922 0)"/>
      <use xlink:href="#DejaVuSans-67" transform="translate(349.226562 0)"/>
      <use xlink:href="#DejaVuSans-69" transform="translate(412.703125 0)"/>
      <use xlink:href="#DejaVuSans-74" transform="translate(440.486328 0)"/>
      <use xlink:href="#DejaVuSans-20" transform="translate(479.695312 0)"/>
      <use xlink:href="#DejaVuSans-43" transform="translate(511.482422 0)"/>
      <use xlink:href="#DejaVuSans-6f" transform="translate(581.306641 0)"/>
      <use xlink:href="#DejaVuSans-6e" transform="translate(642.488281 0)"/>
      <use xlink:href="#DejaVuSans-74" transform="translate(705.867188 0)"/>
      <use xlink:href="#DejaVuSans-72" transform="translate(745.076172 0)"/>
      <use xlink:href="#DejaVuSans-69" transform="translate(786.189453 0)"/>
      <use xlink:href="#DejaVuSans-62" transform="translate(813.972656 0)"/>
      <use xlink:href="#DejaVuSans-75" transform="translate(877.449219 0)"/>
      <use xlink:href="#DejaVuSans-74" transform="translate(940.828125 0)"/>
      <use xlink:href="#DejaVuSans-69" transform="translate(980.037109 0)"/>
      <use xlink:href="#DejaVuSans-6f" transform="translate(1007.820312 0)"/>
      <use xlink:href="#DejaVuSans-6e" transform="translate(1069.001953 0)"/>
     </g>
    </g>
   </g>
   <g id="line2d_23">
    <path d="M 93.102756 254.78659 
L 104.847614 254.554203 
L 116.592473 254.145841 
L 128.337331 254.349156 
L 140.082189 253.107704 
L 151.827048 253.126188 
L 163.571906 253.304858 
L 175.316765 253.25557 
L 187.061623 254.550545 
L 198.806481 256.865944 
L 210.55134 252.466955 
L 222.296198 255.750794 
L 234.041057 254.929835 
L 245.785915 254.016459 
L 257.530774 256.188229 
L 269.275632 255.094643 
L 281.02049 252.898229 
L 292.765349 264.739765 
L 304.510207 258.332274 
L 316.255066 252.873585 
L 327.999924 254.350696 
L 339.744783 254.118116 
L 351.489641 256.939877 
L 363.234499 260.476319 
L 374.979358 246.355194 
L 386.724216 249.509652 
L 398.469075 266.415571 
L 410.213933 261.881038 
L 421.958791 234.673845 
L 433.70365 265.82411 
L 445.448508 271.541564 
L 457.193367 273.907406 
L 468.938225 270.161489 
L 480.683084 223.830399 
L 492.427942 239.306954 
L 504.1728 266.563436 
L 515.917659 227.970624 
L 527.662517 258.036544 
L 539.407376 247.340962 
L 551.152234 237.433995 
L 562.897092 223.436091 
L 574.641951 286.525235 
L 586.386809 258.997667 
L 598.131668 249.879315 
L 609.876526 255.233266 
L 621.621385 272.625908 
L 633.366243 222.647477 
L 645.111101 254.620627 
L 656.85596 269.372874 
L 668.600818 255.516675 
L 680.345677 271.147256 
L 692.090535 261.683885 
L 703.835394 202.93212 
L 715.580252 215.352795 
L 727.32511 147.334812 
L 739.069969 254.319891 
L 750.814827 356.317601 
L 762.559686 257.765458 
L 774.304544 228.167777 
L 786.049402 234.673845 
L 797.794261 249.756094 
L 809.539119 182.033841 
" clip-path="url(#p40f82b0d93)" style="fill: none; stroke: #1f77b4; stroke-width: 2; stroke-linecap: square"/>
    <defs>
     <path id="mc7794be4c5" d="M 0 1.5 
C 0.397805 1.5 0.77937 1.341951 1.06066 1.06066 
C 1.341951 0.77937 1.5 0.397805 1.5 0 
C 1.5 -0.397805 1.341951 -0.77937 1.06066 -1.06066 
C 0.77937 -1.341951 0.397805 -1.5 0 -1.5 
C -0.397805 -1.5 -0.77937 -1.341951 -1.06066 -1.06066 
C -1.341951 -0.77937 -1.5 -0.397805 -1.5 0 
C -1.5 0.397805 -1.341951 0.77937 -1.06066 1.06066 
C -0.77937 1.341951 -0.397805 1.5 0 1.5 
z
" style="stroke: #1f77b4"/>
    </defs>
    <g clip-path="url(#p40f82b0d93)">
     <use xlink:href="#mc7794be4c5" x="93.102756" y="254.78659" style="fill: #1f77b4; stroke: #1f77b4"/>
     <use xlink:href="#mc7794be4c5" x="104.847614" y="254.554203" style="fill: #1f77b4; stroke: #1f77b4"/>
     <use xlink:href="#mc7794be4c5" x="116.592473" y="254.145841" style="fill: #1f77b4; stroke: #1f77b4"/>
     <use xlink:href="#mc7794be4c5" x="128.337331" y="254.349156" style="fill: #1f77b4; stroke: #1f77b4"/>
     <use xlink:href="#mc7794be4c5" x="140.082189" y="253.107704" style="fill: #1f77b4; stroke: #1f77b4"/>
     <use xlink:href="#mc7794be4c5" x="151.827048" y="253.126188" style="fill: #1f77b4; stroke: #1f77b4"/>
     <use xlink:href="#mc7794be4c5" x="163.571906" y="253.304858" style="fill: #1f77b4; stroke: #1f77b4"/>
     <use xlink:href="#mc7794be4c5" x="175.316765" y="253.25557" style="fill: #1f77b4; stroke: #1f77b4"/>
     <use xlink:href="#mc7794be4c5" x="187.061623" y="254.550545" style="fill: #1f77b4; stroke: #1f77b4"/>
     <use xlink:href="#mc7794be4c5" x="198.806481" y="256.865944" style="fill: #1f77b4; stroke: #1f77b4"/>
     <use xlink:href="#mc7794be4c5" x="210.55134" y="252.466955" style="fill: #1f77b4; stroke: #1f77b4"/>
     <use xlink:href="#mc7794be4c5" x="222.296198" y="255.750794" style="fill: #1f77b4; stroke: #1f77b4"/>
     <use xlink:href="#mc7794be4c5" x="234.041057" y="254.929835" style="fill: #1f77b4; stroke: #1f77b4"/>
     <use xlink:href="#mc7794be4c5" x="245.785915" y="254.016459" style="fill: #1f77b4; stroke: #1f77b4"/>
     <use xlink:href="#mc7794be4c5" x="257.530774" y="256.188229" style="fill: #1f77b4; stroke: #1f77b4"/>
     <use xlink:href="#mc7794be4c5" x="269.275632" y="255.094643" style="fill: #1f77b4; stroke: #1f77b4"/>
     <use xlink:href="#mc7794be4c5" x="281.02049" y="252.898229" style="fill: #1f77b4; stroke: #1f77b4"/>
     <use xlink:href="#mc7794be4c5" x="292.765349" y="264.739765" style="fill: #1f77b4; stroke: #1f77b4"/>
     <use xlink:href="#mc7794be4c5" x="304.510207" y="258.332274" style="fill: #1f77b4; stroke: #1f77b4"/>
     <use xlink:href="#mc7794be4c5" x="316.255066" y="252.873585" style="fill: #1f77b4; stroke: #1f77b4"/>
     <use xlink:href="#mc7794be4c5" x="327.999924" y="254.350696" style="fill: #1f77b4; stroke: #1f77b4"/>
     <use xlink:href="#mc7794be4c5" x="339.744783" y="254.118116" style="fill: #1f77b4; stroke: #1f77b4"/>
     <use xlink:href="#mc7794be4c5" x="351.489641" y="256.939877" style="fill: #1f77b4; stroke: #1f77b4"/>
     <use xlink:href="#mc7794be4c5" x="363.234499" y="260.476319" style="fill: #1f77b4; stroke: #1f77b4"/>
     <use xlink:href="#mc7794be4c5" x="374.979358" y="246.355194" style="fill: #1f77b4; stroke: #1f77b4"/>
     <use xlink:href="#mc7794be4c5" x="386.724216" y="249.509652" style="fill: #1f77b4; stroke: #1f77b4"/>
     <use xlink:href="#mc7794be4c5" x="398.469075" y="266.415571" style="fill: #1f77b4; stroke: #1f77b4"/>
     <use xlink:href="#mc7794be4c5" x="410.213933" y="261.881038" style="fill: #1f77b4; stroke: #1f77b4"/>
     <use xlink:href="#mc7794be4c5" x="421.958791" y="234.673845" style="fill: #1f77b4; stroke: #1f77b4"/>
     <use xlink:href="#mc7794be4c5" x="433.70365" y="265.82411" style="fill: #1f77b4; stroke: #1f77b4"/>
     <use xlink:href="#mc7794be4c5" x="445.448508" y="271.541564" style="fill: #1f77b4; stroke: #1f77b4"/>
     <use xlink:href="#mc7794be4c5" x="457.193367" y="273.907406" style="fill: #1f77b4; stroke: #1f77b4"/>
     <use xlink:href="#mc7794be4c5" x="468.938225" y="270.161489" style="fill: #1f77b4; stroke: #1f77b4"/>
     <use xlink:href="#mc7794be4c5" x="480.683084" y="223.830399" style="fill: #1f77b4; stroke: #1f77b4"/>
     <use xlink:href="#mc7794be4c5" x="492.427942" y="239.306954" style="fill: #1f77b4; stroke: #1f77b4"/>
     <use xlink:href="#mc7794be4c5" x="504.1728" y="266.563436" style="fill: #1f77b4; stroke: #1f77b4"/>
     <use xlink:href="#mc7794be4c5" x="515.917659" y="227.970624" style="fill: #1f77b4; stroke: #1f77b4"/>
     <use xlink:href="#mc7794be4c5" x="527.662517" y="258.036544" style="fill: #1f77b4; stroke: #1f77b4"/>
     <use xlink:href="#mc7794be4c5" x="539.407376" y="247.340962" style="fill: #1f77b4; stroke: #1f77b4"/>
     <use xlink:href="#mc7794be4c5" x="551.152234" y="237.433995" style="fill: #1f77b4; stroke: #1f77b4"/>
     <use xlink:href="#mc7794be4c5" x="562.897092" y="223.436091" style="fill: #1f77b4; stroke: #1f77b4"/>
     <use xlink:href="#mc7794be4c5" x="574.641951" y="286.525235" style="fill: #1f77b4; stroke: #1f77b4"/>
     <use xlink:href="#mc7794be4c5" x="586.386809" y="258.997667" style="fill: #1f77b4; stroke: #1f77b4"/>
     <use xlink:href="#mc7794be4c5" x="598.131668" y="249.879315" style="fill: #1f77b4; stroke: #1f77b4"/>
     <use xlink:href="#mc7794be4c5" x="609.876526" y="255.233266" style="fill: #1f77b4; stroke: #1f77b4"/>
     <use xlink:href="#mc7794be4c5" x="621.621385" y="272.625908" style="fill: #1f77b4; stroke: #1f77b4"/>
     <use xlink:href="#mc7794be4c5" x="633.366243" y="222.647477" style="fill: #1f77b4; stroke: #1f77b4"/>
     <use xlink:href="#mc7794be4c5" x="645.111101" y="254.620627" style="fill: #1f77b4; stroke: #1f77b4"/>
     <use xlink:href="#mc7794be4c5" x="656.85596" y="269.372874" style="fill: #1f77b4; stroke: #1f77b4"/>
     <use xlink:href="#mc7794be4c5" x="668.600818" y="255.516675" style="fill: #1f77b4; stroke: #1f77b4"/>
     <use xlink:href="#mc7794be4c5" x="680.345677" y="271.147256" style="fill: #1f77b4; stroke: #1f77b4"/>
     <use xlink:href="#mc7794be4c5" x="692.090535" y="261.683885" style="fill: #1f77b4; stroke: #1f77b4"/>
     <use xlink:href="#mc7794be4c5" x="703.835394" y="202.93212" style="fill: #1f77b4; stroke: #1f77b4"/>
     <use xlink:href="#mc7794be4c5" x="715.580252" y="215.352795" style="fill: #1f77b4; stroke: #1f77b4"/>
     <use xlink:href="#mc7794be4c5" x="727.32511" y="147.334812" style="fill: #1f77b4; stroke: #1f77b4"/>
     <use xlink:href="#mc7794be4c5" x="739.069969" y="254.319891" style="fill: #1f77b4; stroke: #1f77b4"/>
     <use xlink:href="#mc7794be4c5" x="750.814827" y="356.317601" style="fill: #1f77b4; stroke: #1f77b4"/>
     <use xlink:href="#mc7794be4c5" x="762.559686" y="257.765458" style="fill: #1f77b4; stroke: #1f77b4"/>
     <use xlink:href="#mc7794be4c5" x="774.304544" y="228.167777" style="fill: #1f77b4; stroke: #1f77b4"/>
     <use xlink:href="#mc7794be4c5" x="786.049402" y="234.673845" style="fill: #1f77b4; stroke: #1f77b4"/>
     <use xlink:href="#mc7794be4c5" x="797.794261" y="249.756094" style="fill: #1f77b4; stroke: #1f77b4"/>
     <use xlink:href="#mc7794be4c5" x="809.539119" y="182.033841" style="fill: #1f77b4; stroke: #1f77b4"/>
    </g>
   </g>
   <g id="line2d_24">
    <path d="M 93.102756 254.872845 
L 104.847614 254.553818 
L 116.592473 254.1366 
L 128.337331 254.350696 
L 140.082189 253.113865 
L 151.827048 253.101543 
L 163.571906 253.230925 
L 175.316765 253.230925 
L 187.061623 254.539956 
L 198.806481 256.348416 
L 210.55134 253.132349 
L 222.296198 255.381132 
L 234.041057 254.906731 
L 245.785915 253.973332 
L 257.530774 256.114296 
L 269.275632 254.709577 
L 281.02049 253.033772 
L 292.765349 263.310402 
L 304.510207 257.038454 
L 316.255066 251.308678 
L 327.999924 254.664525 
L 339.744783 253.015289 
L 351.489641 259.145533 
L 363.234499 260.59954 
L 374.979358 249.85467 
L 386.724216 247.538116 
L 398.469075 231.913695 
L 410.213933 275.780365 
L 421.958791 262.472499 
L 433.70365 279.131976 
L 445.448508 284.948007 
L 457.193367 273.217369 
L 468.938225 268.58426 
L 480.683084 228.956391 
L 492.427942 251.234745 
L 504.1728 271.245833 
L 515.917659 247.932423 
L 527.662517 256.37306 
L 539.407376 249.485007 
L 551.152234 259.36733 
L 562.897092 225.407627 
L 574.641951 285.933775 
L 586.386809 260.574896 
L 598.131668 247.587404 
L 609.876526 242.855719 
L 621.621385 279.62486 
L 633.366243 238.81407 
L 645.111101 254.353777 
L 656.85596 276.667557 
L 668.600818 240.785606 
L 680.345677 240.489876 
L 692.090535 278.737669 
L 703.835394 168.233091 
L 715.580252 212.001184 
L 727.32511 152.855112 
L 739.069969 237.335418 
L 750.814827 299.931678 
L 762.559686 318.858422 
L 774.304544 154.038033 
L 786.049402 208.846727 
L 797.794261 174.936312 
L 809.539119 118.944697 
" clip-path="url(#p40f82b0d93)" style="fill: none; stroke: #ff7f0e; stroke-width: 2; stroke-linecap: square"/>
    <defs>
     <path id="m01dc09fac9" d="M 0 1.5 
C 0.397805 1.5 0.77937 1.341951 1.06066 1.06066 
C 1.341951 0.77937 1.5 0.397805 1.5 0 
C 1.5 -0.397805 1.341951 -0.77937 1.06066 -1.06066 
C 0.77937 -1.341951 0.397805 -1.5 0 -1.5 
C -0.397805 -1.5 -0.77937 -1.341951 -1.06066 -1.06066 
C -1.341951 -0.77937 -1.5 -0.397805 -1.5 0 
C -1.5 0.397805 -1.341951 0.77937 -1.06066 1.06066 
C -0.77937 1.341951 -0.397805 1.5 0 1.5 
z
" style="stroke: #ff7f0e"/>
    </defs>
    <g clip-path="url(#p40f82b0d93)">
     <use xlink:href="#m01dc09fac9" x="93.102756" y="254.872845" style="fill: #ff7f0e; stroke: #ff7f0e"/>
     <use xlink:href="#m01dc09fac9" x="104.847614" y="254.553818" style="fill: #ff7f0e; stroke: #ff7f0e"/>
     <use xlink:href="#m01dc09fac9" x="116.592473" y="254.1366" style="fill: #ff7f0e; stroke: #ff7f0e"/>
     <use xlink:href="#m01dc09fac9" x="128.337331" y="254.350696" style="fill: #ff7f0e; stroke: #ff7f0e"/>
     <use xlink:href="#m01dc09fac9" x="140.082189" y="253.113865" style="fill: #ff7f0e; stroke: #ff7f0e"/>
     <use xlink:href="#m01dc09fac9" x="151.827048" y="253.101543" style="fill: #ff7f0e; stroke: #ff7f0e"/>
     <use xlink:href="#m01dc09fac9" x="163.571906" y="253.230925" style="fill: #ff7f0e; stroke: #ff7f0e"/>
     <use xlink:href="#m01dc09fac9" x="175.316765" y="253.230925" style="fill: #ff7f0e; stroke: #ff7f0e"/>
     <use xlink:href="#m01dc09fac9" x="187.061623" y="254.539956" style="fill: #ff7f0e; stroke: #ff7f0e"/>
     <use xlink:href="#m01dc09fac9" x="198.806481" y="256.348416" style="fill: #ff7f0e; stroke: #ff7f0e"/>
     <use xlink:href="#m01dc09fac9" x="210.55134" y="253.132349" style="fill: #ff7f0e; stroke: #ff7f0e"/>
     <use xlink:href="#m01dc09fac9" x="222.296198" y="255.381132" style="fill: #ff7f0e; stroke: #ff7f0e"/>
     <use xlink:href="#m01dc09fac9" x="234.041057" y="254.906731" style="fill: #ff7f0e; stroke: #ff7f0e"/>
     <use xlink:href="#m01dc09fac9" x="245.785915" y="253.973332" style="fill: #ff7f0e; stroke: #ff7f0e"/>
     <use xlink:href="#m01dc09fac9" x="257.530774" y="256.114296" style="fill: #ff7f0e; stroke: #ff7f0e"/>
     <use xlink:href="#m01dc09fac9" x="269.275632" y="254.709577" style="fill: #ff7f0e; stroke: #ff7f0e"/>
     <use xlink:href="#m01dc09fac9" x="281.02049" y="253.033772" style="fill: #ff7f0e; stroke: #ff7f0e"/>
     <use xlink:href="#m01dc09fac9" x="292.765349" y="263.310402" style="fill: #ff7f0e; stroke: #ff7f0e"/>
     <use xlink:href="#m01dc09fac9" x="304.510207" y="257.038454" style="fill: #ff7f0e; stroke: #ff7f0e"/>
     <use xlink:href="#m01dc09fac9" x="316.255066" y="251.308678" style="fill: #ff7f0e; stroke: #ff7f0e"/>
     <use xlink:href="#m01dc09fac9" x="327.999924" y="254.664525" style="fill: #ff7f0e; stroke: #ff7f0e"/>
     <use xlink:href="#m01dc09fac9" x="339.744783" y="253.015289" style="fill: #ff7f0e; stroke: #ff7f0e"/>
     <use xlink:href="#m01dc09fac9" x="351.489641" y="259.145533" style="fill: #ff7f0e; stroke: #ff7f0e"/>
     <use xlink:href="#m01dc09fac9" x="363.234499" y="260.59954" style="fill: #ff7f0e; stroke: #ff7f0e"/>
     <use xlink:href="#m01dc09fac9" x="374.979358" y="249.85467" style="fill: #ff7f0e; stroke: #ff7f0e"/>
     <use xlink:href="#m01dc09fac9" x="386.724216" y="247.538116" style="fill: #ff7f0e; stroke: #ff7f0e"/>
     <use xlink:href="#m01dc09fac9" x="398.469075" y="231.913695" style="fill: #ff7f0e; stroke: #ff7f0e"/>
     <use xlink:href="#m01dc09fac9" x="410.213933" y="275.780365" style="fill: #ff7f0e; stroke: #ff7f0e"/>
     <use xlink:href="#m01dc09fac9" x="421.958791" y="262.472499" style="fill: #ff7f0e; stroke: #ff7f0e"/>
     <use xlink:href="#m01dc09fac9" x="433.70365" y="279.131976" style="fill: #ff7f0e; stroke: #ff7f0e"/>
     <use xlink:href="#m01dc09fac9" x="445.448508" y="284.948007" style="fill: #ff7f0e; stroke: #ff7f0e"/>
     <use xlink:href="#m01dc09fac9" x="457.193367" y="273.217369" style="fill: #ff7f0e; stroke: #ff7f0e"/>
     <use xlink:href="#m01dc09fac9" x="468.938225" y="268.58426" style="fill: #ff7f0e; stroke: #ff7f0e"/>
     <use xlink:href="#m01dc09fac9" x="480.683084" y="228.956391" style="fill: #ff7f0e; stroke: #ff7f0e"/>
     <use xlink:href="#m01dc09fac9" x="492.427942" y="251.234745" style="fill: #ff7f0e; stroke: #ff7f0e"/>
     <use xlink:href="#m01dc09fac9" x="504.1728" y="271.245833" style="fill: #ff7f0e; stroke: #ff7f0e"/>
     <use xlink:href="#m01dc09fac9" x="515.917659" y="247.932423" style="fill: #ff7f0e; stroke: #ff7f0e"/>
     <use xlink:href="#m01dc09fac9" x="527.662517" y="256.37306" style="fill: #ff7f0e; stroke: #ff7f0e"/>
     <use xlink:href="#m01dc09fac9" x="539.407376" y="249.485007" style="fill: #ff7f0e; stroke: #ff7f0e"/>
     <use xlink:href="#m01dc09fac9" x="551.152234" y="259.36733" style="fill: #ff7f0e; stroke: #ff7f0e"/>
     <use xlink:href="#m01dc09fac9" x="562.897092" y="225.407627" style="fill: #ff7f0e; stroke: #ff7f0e"/>
     <use xlink:href="#m01dc09fac9" x="574.641951" y="285.933775" style="fill: #ff7f0e; stroke: #ff7f0e"/>
     <use xlink:href="#m01dc09fac9" x="586.386809" y="260.574896" style="fill: #ff7f0e; stroke: #ff7f0e"/>
     <use xlink:href="#m01dc09fac9" x="598.131668" y="247.587404" style="fill: #ff7f0e; stroke: #ff7f0e"/>
     <use xlink:href="#m01dc09fac9" x="609.876526" y="242.855719" style="fill: #ff7f0e; stroke: #ff7f0e"/>
     <use xlink:href="#m01dc09fac9" x="621.621385" y="279.62486" style="fill: #ff7f0e; stroke: #ff7f0e"/>
     <use xlink:href="#m01dc09fac9" x="633.366243" y="238.81407" style="fill: #ff7f0e; stroke: #ff7f0e"/>
     <use xlink:href="#m01dc09fac9" x="645.111101" y="254.353777" style="fill: #ff7f0e; stroke: #ff7f0e"/>
     <use xlink:href="#m01dc09fac9" x="656.85596" y="276.667557" style="fill: #ff7f0e; stroke: #ff7f0e"/>
     <use xlink:href="#m01dc09fac9" x="668.600818" y="240.785606" style="fill: #ff7f0e; stroke: #ff7f0e"/>
     <use xlink:href="#m01dc09fac9" x="680.345677" y="240.489876" style="fill: #ff7f0e; stroke: #ff7f0e"/>
     <use xlink:href="#m01dc09fac9" x="692.090535" y="278.737669" style="fill: #ff7f0e; stroke: #ff7f0e"/>
     <use xlink:href="#m01dc09fac9" x="703.835394" y="168.233091" style="fill: #ff7f0e; stroke: #ff7f0e"/>
     <use xlink:href="#m01dc09fac9" x="715.580252" y="212.001184" style="fill: #ff7f0e; stroke: #ff7f0e"/>
     <use xlink:href="#m01dc09fac9" x="727.32511" y="152.855112" style="fill: #ff7f0e; stroke: #ff7f0e"/>
     <use xlink:href="#m01dc09fac9" x="739.069969" y="237.335418" style="fill: #ff7f0e; stroke: #ff7f0e"/>
     <use xlink:href="#m01dc09fac9" x="750.814827" y="299.931678" style="fill: #ff7f0e; stroke: #ff7f0e"/>
     <use xlink:href="#m01dc09fac9" x="762.559686" y="318.858422" style="fill: #ff7f0e; stroke: #ff7f0e"/>
     <use xlink:href="#m01dc09fac9" x="774.304544" y="154.038033" style="fill: #ff7f0e; stroke: #ff7f0e"/>
     <use xlink:href="#m01dc09fac9" x="786.049402" y="208.846727" style="fill: #ff7f0e; stroke: #ff7f0e"/>
     <use xlink:href="#m01dc09fac9" x="797.794261" y="174.936312" style="fill: #ff7f0e; stroke: #ff7f0e"/>
     <use xlink:href="#m01dc09fac9" x="809.539119" y="118.944697" style="fill: #ff7f0e; stroke: #ff7f0e"/>
    </g>
   </g>
   <g id="line2d_25">
    <path d="M 93.102756 254.772728 
L 104.847614 254.560172 
L 116.592473 254.148922 
L 128.337331 254.349156 
L 140.082189 253.120026 
L 151.827048 253.113865 
L 163.571906 253.218603 
L 175.316765 253.243247 
L 187.061623 254.581591 
L 198.806481 256.705757 
L 210.55134 252.78733 
L 222.296198 255.325682 
L 234.041057 254.865144 
L 245.785915 253.736131 
L 257.530774 256.138941 
L 269.275632 254.96372 
L 281.02049 253.354146 
L 292.765349 263.310402 
L 304.510207 258.282986 
L 316.255066 252.713397 
L 327.999924 254.158163 
L 339.744783 254.942157 
L 351.489641 257.642237 
L 363.234499 264.197593 
L 374.979358 254.292166 
L 386.724216 253.502012 
L 398.469075 244.630101 
L 410.213933 269.175721 
L 421.958791 238.321186 
L 433.70365 266.070552 
L 445.448508 279.230553 
L 457.193367 276.174673 
L 468.938225 255.602929 
L 480.683084 229.153545 
L 492.427942 247.685981 
L 504.1728 261.289578 
L 515.917659 242.905007 
L 527.662517 260.845982 
L 539.407376 255.029952 
L 551.152234 243.792198 
L 562.897092 226.787702 
L 574.641951 284.159392 
L 586.386809 258.652649 
L 598.131668 250.199689 
L 609.876526 243.940063 
L 621.621385 274.498867 
L 633.366243 232.012272 
L 645.111101 252.048004 
L 656.85596 284.5537 
L 668.600818 254.695715 
L 680.345677 250.076468 
L 692.090535 263.852574 
L 703.835394 167.050169 
L 715.580252 215.549948 
L 727.32511 142.603126 
L 739.069969 221.070249 
L 750.814827 364.992358 
L 762.559686 265.922687 
L 774.304544 205.69227 
L 786.049402 156.009569 
L 797.794261 137.082826 
L 809.539119 40.083267 
" clip-path="url(#p40f82b0d93)" style="fill: none; stroke: #2ca02c; stroke-width: 2; stroke-linecap: square"/>
    <defs>
     <path id="m37b7b36e7e" d="M 0 1.5 
C 0.397805 1.5 0.77937 1.341951 1.06066 1.06066 
C 1.341951 0.77937 1.5 0.397805 1.5 0 
C 1.5 -0.397805 1.341951 -0.77937 1.06066 -1.06066 
C 0.77937 -1.341951 0.397805 -1.5 0 -1.5 
C -0.397805 -1.5 -0.77937 -1.341951 -1.06066 -1.06066 
C -1.341951 -0.77937 -1.5 -0.397805 -1.5 0 
C -1.5 0.397805 -1.341951 0.77937 -1.06066 1.06066 
C -0.77937 1.341951 -0.397805 1.5 0 1.5 
z
" style="stroke: #2ca02c"/>
    </defs>
    <g clip-path="url(#p40f82b0d93)">
     <use xlink:href="#m37b7b36e7e" x="93.102756" y="254.772728" style="fill: #2ca02c; stroke: #2ca02c"/>
     <use xlink:href="#m37b7b36e7e" x="104.847614" y="254.560172" style="fill: #2ca02c; stroke: #2ca02c"/>
     <use xlink:href="#m37b7b36e7e" x="116.592473" y="254.148922" style="fill: #2ca02c; stroke: #2ca02c"/>
     <use xlink:href="#m37b7b36e7e" x="128.337331" y="254.349156" style="fill: #2ca02c; stroke: #2ca02c"/>
     <use xlink:href="#m37b7b36e7e" x="140.082189" y="253.120026" style="fill: #2ca02c; stroke: #2ca02c"/>
     <use xlink:href="#m37b7b36e7e" x="151.827048" y="253.113865" style="fill: #2ca02c; stroke: #2ca02c"/>
     <use xlink:href="#m37b7b36e7e" x="163.571906" y="253.218603" style="fill: #2ca02c; stroke: #2ca02c"/>
     <use xlink:href="#m37b7b36e7e" x="175.316765" y="253.243247" style="fill: #2ca02c; stroke: #2ca02c"/>
     <use xlink:href="#m37b7b36e7e" x="187.061623" y="254.581591" style="fill: #2ca02c; stroke: #2ca02c"/>
     <use xlink:href="#m37b7b36e7e" x="198.806481" y="256.705757" style="fill: #2ca02c; stroke: #2ca02c"/>
     <use xlink:href="#m37b7b36e7e" x="210.55134" y="252.78733" style="fill: #2ca02c; stroke: #2ca02c"/>
     <use xlink:href="#m37b7b36e7e" x="222.296198" y="255.325682" style="fill: #2ca02c; stroke: #2ca02c"/>
     <use xlink:href="#m37b7b36e7e" x="234.041057" y="254.865144" style="fill: #2ca02c; stroke: #2ca02c"/>
     <use xlink:href="#m37b7b36e7e" x="245.785915" y="253.736131" style="fill: #2ca02c; stroke: #2ca02c"/>
     <use xlink:href="#m37b7b36e7e" x="257.530774" y="256.138941" style="fill: #2ca02c; stroke: #2ca02c"/>
     <use xlink:href="#m37b7b36e7e" x="269.275632" y="254.96372" style="fill: #2ca02c; stroke: #2ca02c"/>
     <use xlink:href="#m37b7b36e7e" x="281.02049" y="253.354146" style="fill: #2ca02c; stroke: #2ca02c"/>
     <use xlink:href="#m37b7b36e7e" x="292.765349" y="263.310402" style="fill: #2ca02c; stroke: #2ca02c"/>
     <use xlink:href="#m37b7b36e7e" x="304.510207" y="258.282986" style="fill: #2ca02c; stroke: #2ca02c"/>
     <use xlink:href="#m37b7b36e7e" x="316.255066" y="252.713397" style="fill: #2ca02c; stroke: #2ca02c"/>
     <use xlink:href="#m37b7b36e7e" x="327.999924" y="254.158163" style="fill: #2ca02c; stroke: #2ca02c"/>
     <use xlink:href="#m37b7b36e7e" x="339.744783" y="254.942157" style="fill: #2ca02c; stroke: #2ca02c"/>
     <use xlink:href="#m37b7b36e7e" x="351.489641" y="257.642237" style="fill: #2ca02c; stroke: #2ca02c"/>
     <use xlink:href="#m37b7b36e7e" x="363.234499" y="264.197593" style="fill: #2ca02c; stroke: #2ca02c"/>
     <use xlink:href="#m37b7b36e7e" x="374.979358" y="254.292166" style="fill: #2ca02c; stroke: #2ca02c"/>
     <use xlink:href="#m37b7b36e7e" x="386.724216" y="253.502012" style="fill: #2ca02c; stroke: #2ca02c"/>
     <use xlink:href="#m37b7b36e7e" x="398.469075" y="244.630101" style="fill: #2ca02c; stroke: #2ca02c"/>
     <use xlink:href="#m37b7b36e7e" x="410.213933" y="269.175721" style="fill: #2ca02c; stroke: #2ca02c"/>
     <use xlink:href="#m37b7b36e7e" x="421.958791" y="238.321186" style="fill: #2ca02c; stroke: #2ca02c"/>
     <use xlink:href="#m37b7b36e7e" x="433.70365" y="266.070552" style="fill: #2ca02c; stroke: #2ca02c"/>
     <use xlink:href="#m37b7b36e7e" x="445.448508" y="279.230553" style="fill: #2ca02c; stroke: #2ca02c"/>
     <use xlink:href="#m37b7b36e7e" x="457.193367" y="276.174673" style="fill: #2ca02c; stroke: #2ca02c"/>
     <use xlink:href="#m37b7b36e7e" x="468.938225" y="255.602929" style="fill: #2ca02c; stroke: #2ca02c"/>
     <use xlink:href="#m37b7b36e7e" x="480.683084" y="229.153545" style="fill: #2ca02c; stroke: #2ca02c"/>
     <use xlink:href="#m37b7b36e7e" x="492.427942" y="247.685981" style="fill: #2ca02c; stroke: #2ca02c"/>
     <use xlink:href="#m37b7b36e7e" x="504.1728" y="261.289578" style="fill: #2ca02c; stroke: #2ca02c"/>
     <use xlink:href="#m37b7b36e7e" x="515.917659" y="242.905007" style="fill: #2ca02c; stroke: #2ca02c"/>
     <use xlink:href="#m37b7b36e7e" x="527.662517" y="260.845982" style="fill: #2ca02c; stroke: #2ca02c"/>
     <use xlink:href="#m37b7b36e7e" x="539.407376" y="255.029952" style="fill: #2ca02c; stroke: #2ca02c"/>
     <use xlink:href="#m37b7b36e7e" x="551.152234" y="243.792198" style="fill: #2ca02c; stroke: #2ca02c"/>
     <use xlink:href="#m37b7b36e7e" x="562.897092" y="226.787702" style="fill: #2ca02c; stroke: #2ca02c"/>
     <use xlink:href="#m37b7b36e7e" x="574.641951" y="284.159392" style="fill: #2ca02c; stroke: #2ca02c"/>
     <use xlink:href="#m37b7b36e7e" x="586.386809" y="258.652649" style="fill: #2ca02c; stroke: #2ca02c"/>
     <use xlink:href="#m37b7b36e7e" x="598.131668" y="250.199689" style="fill: #2ca02c; stroke: #2ca02c"/>
     <use xlink:href="#m37b7b36e7e" x="609.876526" y="243.940063" style="fill: #2ca02c; stroke: #2ca02c"/>
     <use xlink:href="#m37b7b36e7e" x="621.621385" y="274.498867" style="fill: #2ca02c; stroke: #2ca02c"/>
     <use xlink:href="#m37b7b36e7e" x="633.366243" y="232.012272" style="fill: #2ca02c; stroke: #2ca02c"/>
     <use xlink:href="#m37b7b36e7e" x="645.111101" y="252.048004" style="fill: #2ca02c; stroke: #2ca02c"/>
     <use xlink:href="#m37b7b36e7e" x="656.85596" y="284.5537" style="fill: #2ca02c; stroke: #2ca02c"/>
     <use xlink:href="#m37b7b36e7e" x="668.600818" y="254.695715" style="fill: #2ca02c; stroke: #2ca02c"/>
     <use xlink:href="#m37b7b36e7e" x="680.345677" y="250.076468" style="fill: #2ca02c; stroke: #2ca02c"/>
     <use xlink:href="#m37b7b36e7e" x="692.090535" y="263.852574" style="fill: #2ca02c; stroke: #2ca02c"/>
     <use xlink:href="#m37b7b36e7e" x="703.835394" y="167.050169" style="fill: #2ca02c; stroke: #2ca02c"/>
     <use xlink:href="#m37b7b36e7e" x="715.580252" y="215.549948" style="fill: #2ca02c; stroke: #2ca02c"/>
     <use xlink:href="#m37b7b36e7e" x="727.32511" y="142.603126" style="fill: #2ca02c; stroke: #2ca02c"/>
     <use xlink:href="#m37b7b36e7e" x="739.069969" y="221.070249" style="fill: #2ca02c; stroke: #2ca02c"/>
     <use xlink:href="#m37b7b36e7e" x="750.814827" y="364.992358" style="fill: #2ca02c; stroke: #2ca02c"/>
     <use xlink:href="#m37b7b36e7e" x="762.559686" y="265.922687" style="fill: #2ca02c; stroke: #2ca02c"/>
     <use xlink:href="#m37b7b36e7e" x="774.304544" y="205.69227" style="fill: #2ca02c; stroke: #2ca02c"/>
     <use xlink:href="#m37b7b36e7e" x="786.049402" y="156.009569" style="fill: #2ca02c; stroke: #2ca02c"/>
     <use xlink:href="#m37b7b36e7e" x="797.794261" y="137.082826" style="fill: #2ca02c; stroke: #2ca02c"/>
     <use xlink:href="#m37b7b36e7e" x="809.539119" y="40.083267" style="fill: #2ca02c; stroke: #2ca02c"/>
    </g>
   </g>
   <g id="line2d_26">
    <path d="M 57.280938 254.586356 
L 845.360937 254.586356 
" clip-path="url(#p40f82b0d93)" style="fill: none; stroke: #000000; stroke-width: 0.5; stroke-linecap: square"/>
   </g>
   <g id="line2d_27">
    <path d="M 304.510207 381.237812 
L 304.510207 23.837812 
" clip-path="url(#p40f82b0d93)" style="fill: none; stroke-dasharray: 5.55,2.4; stroke-dashoffset: 0; stroke: #008000; stroke-opacity: 0.7; stroke-width: 1.5"/>
   </g>
   <g id="line2d_28">
    <path d="M 762.559686 381.237812 
L 762.559686 23.837812 
" clip-path="url(#p40f82b0d93)" style="fill: none; stroke-dasharray: 5.55,2.4; stroke-dashoffset: 0; stroke: #0000ff; stroke-opacity: 0.7; stroke-width: 1.5"/>
   </g>
   <g id="patch_3">
    <path d="M 57.280938 381.237812 
L 57.280938 23.837812 
" style="fill: none; stroke: #000000; stroke-width: 0.8; stroke-linejoin: miter; stroke-linecap: square"/>
   </g>
   <g id="patch_4">
    <path d="M 845.360937 381.237812 
L 845.360937 23.837812 
" style="fill: none; stroke: #000000; stroke-width: 0.8; stroke-linejoin: miter; stroke-linecap: square"/>
   </g>
   <g id="patch_5">
    <path d="M 57.280938 381.237812 
L 845.360937 381.237812 
" style="fill: none; stroke: #000000; stroke-width: 0.8; stroke-linejoin: miter; stroke-linecap: square"/>
   </g>
   <g id="patch_6">
    <path d="M 57.280938 23.837812 
L 845.360937 23.837812 
" style="fill: none; stroke: #000000; stroke-width: 0.8; stroke-linejoin: miter; stroke-linecap: square"/>
   </g>
   <g id="text_14">
    <!-- MLP Direct Logit Attribution - Croup -->
    <g transform="translate(327.325781 17.837812) scale(0.14 -0.14)">
     <defs>
      <path id="DejaVuSans-44" d="M 1259 4147 
L 1259 519 
L 2022 519 
Q 2988 519 3436 956 
Q 3884 1394 3884 2338 
Q 3884 3275 3436 3711 
Q 2988 4147 2022 4147 
L 1259 4147 
z
M 628 4666 
L 1925 4666 
Q 3281 4666 3915 4102 
Q 4550 3538 4550 2338 
Q 4550 1131 3912 565 
Q 3275 0 1925 0 
L 628 0 
L 628 4666 
z
" transform="scale(0.015625)"/>
      <path id="DejaVuSans-63" d="M 3122 3366 
L 3122 2828 
Q 2878 2963 2633 3030 
Q 2388 3097 2138 3097 
Q 1578 3097 1268 2742 
Q 959 2388 959 1747 
Q 959 1106 1268 751 
Q 1578 397 2138 397 
Q 2388 397 2633 464 
Q 2878 531 3122 666 
L 3122 134 
Q 2881 22 2623 -34 
Q 2366 -91 2075 -91 
Q 1284 -91 818 406 
Q 353 903 353 1747 
Q 353 2603 823 3093 
Q 1294 3584 2113 3584 
Q 2378 3584 2631 3529 
Q 2884 3475 3122 3366 
z
" transform="scale(0.015625)"/>
      <path id="DejaVuSans-41" d="M 2188 4044 
L 1331 1722 
L 3047 1722 
L 2188 4044 
z
M 1831 4666 
L 2547 4666 
L 4325 0 
L 3669 0 
L 3244 1197 
L 1141 1197 
L 716 0 
L 50 0 
L 1831 4666 
z
" transform="scale(0.015625)"/>
      <path id="DejaVuSans-2d" d="M 313 2009 
L 1997 2009 
L 1997 1497 
L 313 1497 
L 313 2009 
z
" transform="scale(0.015625)"/>
      <path id="DejaVuSans-70" d="M 1159 525 
L 1159 -1331 
L 581 -1331 
L 581 3500 
L 1159 3500 
L 1159 2969 
Q 1341 3281 1617 3432 
Q 1894 3584 2278 3584 
Q 2916 3584 3314 3078 
Q 3713 2572 3713 1747 
Q 3713 922 3314 415 
Q 2916 -91 2278 -91 
Q 1894 -91 1617 61 
Q 1341 213 1159 525 
z
M 3116 1747 
Q 3116 2381 2855 2742 
Q 2594 3103 2138 3103 
Q 1681 3103 1420 2742 
Q 1159 2381 1159 1747 
Q 1159 1113 1420 752 
Q 1681 391 2138 391 
Q 2594 391 2855 752 
Q 3116 1113 3116 1747 
z
" transform="scale(0.015625)"/>
     </defs>
     <use xlink:href="#DejaVuSans-4d"/>
     <use xlink:href="#DejaVuSans-4c" transform="translate(86.279297 0)"/>
     <use xlink:href="#DejaVuSans-50" transform="translate(141.992188 0)"/>
     <use xlink:href="#DejaVuSans-20" transform="translate(202.294922 0)"/>
     <use xlink:href="#DejaVuSans-44" transform="translate(234.082031 0)"/>
     <use xlink:href="#DejaVuSans-69" transform="translate(311.083984 0)"/>
     <use xlink:href="#DejaVuSans-72" transform="translate(338.867188 0)"/>
     <use xlink:href="#DejaVuSans-65" transform="translate(377.730469 0)"/>
     <use xlink:href="#DejaVuSans-63" transform="translate(439.253906 0)"/>
     <use xlink:href="#DejaVuSans-74" transform="translate(494.234375 0)"/>
     <use xlink:href="#DejaVuSans-20" transform="translate(533.443359 0)"/>
     <use xlink:href="#DejaVuSans-4c" transform="translate(565.230469 0)"/>
     <use xlink:href="#DejaVuSans-6f" transform="translate(619.193359 0)"/>
     <use xlink:href="#DejaVuSans-67" transform="translate(680.375 0)"/>
     <use xlink:href="#DejaVuSans-69" transform="translate(743.851562 0)"/>
     <use xlink:href="#DejaVuSans-74" transform="translate(771.634766 0)"/>
     <use xlink:href="#DejaVuSans-20" transform="translate(810.84375 0)"/>
     <use xlink:href="#DejaVuSans-41" transform="translate(842.630859 0)"/>
     <use xlink:href="#DejaVuSans-74" transform="translate(909.289062 0)"/>
     <use xlink:href="#DejaVuSans-74" transform="translate(948.498047 0)"/>
     <use xlink:href="#DejaVuSans-72" transform="translate(987.707031 0)"/>
     <use xlink:href="#DejaVuSans-69" transform="translate(1028.820312 0)"/>
     <use xlink:href="#DejaVuSans-62" transform="translate(1056.603516 0)"/>
     <use xlink:href="#DejaVuSans-75" transform="translate(1120.080078 0)"/>
     <use xlink:href="#DejaVuSans-74" transform="translate(1183.458984 0)"/>
     <use xlink:href="#DejaVuSans-69" transform="translate(1222.667969 0)"/>
     <use xlink:href="#DejaVuSans-6f" transform="translate(1250.451172 0)"/>
     <use xlink:href="#DejaVuSans-6e" transform="translate(1311.632812 0)"/>
     <use xlink:href="#DejaVuSans-20" transform="translate(1375.011719 0)"/>
     <use xlink:href="#DejaVuSans-2d" transform="translate(1406.798828 0)"/>
     <use xlink:href="#DejaVuSans-20" transform="translate(1442.882812 0)"/>
     <use xlink:href="#DejaVuSans-43" transform="translate(1474.669922 0)"/>
     <use xlink:href="#DejaVuSans-72" transform="translate(1544.494141 0)"/>
     <use xlink:href="#DejaVuSans-6f" transform="translate(1583.357422 0)"/>
     <use xlink:href="#DejaVuSans-75" transform="translate(1644.539062 0)"/>
     <use xlink:href="#DejaVuSans-70" transform="translate(1707.917969 0)"/>
    </g>
   </g>
   <g id="legend_1">
    <g id="patch_7">
     <path d="M 64.280938 105.228437 
L 184.10125 105.228437 
Q 186.10125 105.228437 186.10125 103.228437 
L 186.10125 30.837812 
Q 186.10125 28.837812 184.10125 28.837812 
L 64.280938 28.837812 
Q 62.280938 28.837812 62.280938 30.837812 
L 62.280938 103.228437 
Q 62.280938 105.228437 64.280938 105.228437 
z
" style="fill: #ffffff; opacity: 0.8; stroke: #cccccc; stroke-linejoin: miter"/>
    </g>
    <g id="line2d_29">
     <path d="M 66.280938 36.93625 
L 76.280938 36.93625 
L 86.280938 36.93625 
" style="fill: none; stroke: #1f77b4; stroke-width: 2; stroke-linecap: square"/>
     <g>
      <use xlink:href="#mc7794be4c5" x="76.280938" y="36.93625" style="fill: #1f77b4; stroke: #1f77b4"/>
     </g>
    </g>
    <g id="text_15">
     <!-- Contrarian -->
     <g transform="translate(94.280938 40.43625) scale(0.1 -0.1)">
      <use xlink:href="#DejaVuSans-43"/>
      <use xlink:href="#DejaVuSans-6f" transform="translate(69.824219 0)"/>
      <use xlink:href="#DejaVuSans-6e" transform="translate(131.005859 0)"/>
      <use xlink:href="#DejaVuSans-74" transform="translate(194.384766 0)"/>
      <use xlink:href="#DejaVuSans-72" transform="translate(233.59375 0)"/>
      <use xlink:href="#DejaVuSans-61" transform="translate(274.707031 0)"/>
      <use xlink:href="#DejaVuSans-72" transform="translate(335.986328 0)"/>
      <use xlink:href="#DejaVuSans-69" transform="translate(377.099609 0)"/>
      <use xlink:href="#DejaVuSans-61" transform="translate(404.882812 0)"/>
      <use xlink:href="#DejaVuSans-6e" transform="translate(466.162109 0)"/>
     </g>
    </g>
    <g id="line2d_30">
     <path d="M 66.280938 51.614375 
L 76.280938 51.614375 
L 86.280938 51.614375 
" style="fill: none; stroke: #ff7f0e; stroke-width: 2; stroke-linecap: square"/>
     <g>
      <use xlink:href="#m01dc09fac9" x="76.280938" y="51.614375" style="fill: #ff7f0e; stroke: #ff7f0e"/>
     </g>
    </g>
    <g id="text_16">
     <!-- Chain Of Thought -->
     <g transform="translate(94.280938 55.114375) scale(0.1 -0.1)">
      <defs>
       <path id="DejaVuSans-68" d="M 3513 2113 
L 3513 0 
L 2938 0 
L 2938 2094 
Q 2938 2591 2744 2837 
Q 2550 3084 2163 3084 
Q 1697 3084 1428 2787 
Q 1159 2491 1159 1978 
L 1159 0 
L 581 0 
L 581 4863 
L 1159 4863 
L 1159 2956 
Q 1366 3272 1645 3428 
Q 1925 3584 2291 3584 
Q 2894 3584 3203 3211 
Q 3513 2838 3513 2113 
z
" transform="scale(0.015625)"/>
       <path id="DejaVuSans-4f" d="M 2522 4238 
Q 1834 4238 1429 3725 
Q 1025 3213 1025 2328 
Q 1025 1447 1429 934 
Q 1834 422 2522 422 
Q 3209 422 3611 934 
Q 4013 1447 4013 2328 
Q 4013 3213 3611 3725 
Q 3209 4238 2522 4238 
z
M 2522 4750 
Q 3503 4750 4090 4092 
Q 4678 3434 4678 2328 
Q 4678 1225 4090 567 
Q 3503 -91 2522 -91 
Q 1538 -91 948 565 
Q 359 1222 359 2328 
Q 359 3434 948 4092 
Q 1538 4750 2522 4750 
z
" transform="scale(0.015625)"/>
       <path id="DejaVuSans-66" d="M 2375 4863 
L 2375 4384 
L 1825 4384 
Q 1516 4384 1395 4259 
Q 1275 4134 1275 3809 
L 1275 3500 
L 2222 3500 
L 2222 3053 
L 1275 3053 
L 1275 0 
L 697 0 
L 697 3053 
L 147 3053 
L 147 3500 
L 697 3500 
L 697 3744 
Q 697 4328 969 4595 
Q 1241 4863 1831 4863 
L 2375 4863 
z
" transform="scale(0.015625)"/>
       <path id="DejaVuSans-54" d="M -19 4666 
L 3928 4666 
L 3928 4134 
L 2272 4134 
L 2272 0 
L 1638 0 
L 1638 4134 
L -19 4134 
L -19 4666 
z
" transform="scale(0.015625)"/>
      </defs>
      <use xlink:href="#DejaVuSans-43"/>
      <use xlink:href="#DejaVuSans-68" transform="translate(69.824219 0)"/>
      <use xlink:href="#DejaVuSans-61" transform="translate(133.203125 0)"/>
      <use xlink:href="#DejaVuSans-69" transform="translate(194.482422 0)"/>
      <use xlink:href="#DejaVuSans-6e" transform="translate(222.265625 0)"/>
      <use xlink:href="#DejaVuSans-20" transform="translate(285.644531 0)"/>
      <use xlink:href="#DejaVuSans-4f" transform="translate(317.431641 0)"/>
      <use xlink:href="#DejaVuSans-66" transform="translate(396.142578 0)"/>
      <use xlink:href="#DejaVuSans-20" transform="translate(431.347656 0)"/>
      <use xlink:href="#DejaVuSans-54" transform="translate(463.134766 0)"/>
      <use xlink:href="#DejaVuSans-68" transform="translate(524.21875 0)"/>
      <use xlink:href="#DejaVuSans-6f" transform="translate(587.597656 0)"/>
      <use xlink:href="#DejaVuSans-75" transform="translate(648.779297 0)"/>
      <use xlink:href="#DejaVuSans-67" transform="translate(712.158203 0)"/>
      <use xlink:href="#DejaVuSans-68" transform="translate(775.634766 0)"/>
      <use xlink:href="#DejaVuSans-74" transform="translate(839.013672 0)"/>
     </g>
    </g>
    <g id="line2d_31">
     <path d="M 66.280938 66.2925 
L 76.280938 66.2925 
L 86.280938 66.2925 
" style="fill: none; stroke: #2ca02c; stroke-width: 2; stroke-linecap: square"/>
     <g>
      <use xlink:href="#m37b7b36e7e" x="76.280938" y="66.2925" style="fill: #2ca02c; stroke: #2ca02c"/>
     </g>
    </g>
    <g id="text_17">
     <!-- Direct Answer -->
     <g transform="translate(94.280938 69.7925) scale(0.1 -0.1)">
      <defs>
       <path id="DejaVuSans-73" d="M 2834 3397 
L 2834 2853 
Q 2591 2978 2328 3040 
Q 2066 3103 1784 3103 
Q 1356 3103 1142 2972 
Q 928 2841 928 2578 
Q 928 2378 1081 2264 
Q 1234 2150 1697 2047 
L 1894 2003 
Q 2506 1872 2764 1633 
Q 3022 1394 3022 966 
Q 3022 478 2636 193 
Q 2250 -91 1575 -91 
Q 1294 -91 989 -36 
Q 684 19 347 128 
L 347 722 
Q 666 556 975 473 
Q 1284 391 1588 391 
Q 1994 391 2212 530 
Q 2431 669 2431 922 
Q 2431 1156 2273 1281 
Q 2116 1406 1581 1522 
L 1381 1569 
Q 847 1681 609 1914 
Q 372 2147 372 2553 
Q 372 3047 722 3315 
Q 1072 3584 1716 3584 
Q 2034 3584 2315 3537 
Q 2597 3491 2834 3397 
z
" transform="scale(0.015625)"/>
       <path id="DejaVuSans-77" d="M 269 3500 
L 844 3500 
L 1563 769 
L 2278 3500 
L 2956 3500 
L 3675 769 
L 4391 3500 
L 4966 3500 
L 4050 0 
L 3372 0 
L 2619 2869 
L 1863 0 
L 1184 0 
L 269 3500 
z
" transform="scale(0.015625)"/>
      </defs>
      <use xlink:href="#DejaVuSans-44"/>
      <use xlink:href="#DejaVuSans-69" transform="translate(77.001953 0)"/>
      <use xlink:href="#DejaVuSans-72" transform="translate(104.785156 0)"/>
      <use xlink:href="#DejaVuSans-65" transform="translate(143.648438 0)"/>
      <use xlink:href="#DejaVuSans-63" transform="translate(205.171875 0)"/>
      <use xlink:href="#DejaVuSans-74" transform="translate(260.152344 0)"/>
      <use xlink:href="#DejaVuSans-20" transform="translate(299.361328 0)"/>
      <use xlink:href="#DejaVuSans-41" transform="translate(331.148438 0)"/>
      <use xlink:href="#DejaVuSans-6e" transform="translate(399.556641 0)"/>
      <use xlink:href="#DejaVuSans-73" transform="translate(462.935547 0)"/>
      <use xlink:href="#DejaVuSans-77" transform="translate(515.035156 0)"/>
      <use xlink:href="#DejaVuSans-65" transform="translate(596.822266 0)"/>
      <use xlink:href="#DejaVuSans-72" transform="translate(658.345703 0)"/>
     </g>
    </g>
    <g id="line2d_32">
     <path d="M 66.280938 80.970625 
L 76.280938 80.970625 
L 86.280938 80.970625 
" style="fill: none; stroke-dasharray: 5.55,2.4; stroke-dashoffset: 0; stroke: #008000; stroke-opacity: 0.7; stroke-width: 1.5"/>
    </g>
    <g id="text_18">
     <!-- Contrarian L18 -->
     <g transform="translate(94.280938 84.470625) scale(0.1 -0.1)">
      <defs>
       <path id="DejaVuSans-38" d="M 2034 2216 
Q 1584 2216 1326 1975 
Q 1069 1734 1069 1313 
Q 1069 891 1326 650 
Q 1584 409 2034 409 
Q 2484 409 2743 651 
Q 3003 894 3003 1313 
Q 3003 1734 2745 1975 
Q 2488 2216 2034 2216 
z
M 1403 2484 
Q 997 2584 770 2862 
Q 544 3141 544 3541 
Q 544 4100 942 4425 
Q 1341 4750 2034 4750 
Q 2731 4750 3128 4425 
Q 3525 4100 3525 3541 
Q 3525 3141 3298 2862 
Q 3072 2584 2669 2484 
Q 3125 2378 3379 2068 
Q 3634 1759 3634 1313 
Q 3634 634 3220 271 
Q 2806 -91 2034 -91 
Q 1263 -91 848 271 
Q 434 634 434 1313 
Q 434 1759 690 2068 
Q 947 2378 1403 2484 
z
M 1172 3481 
Q 1172 3119 1398 2916 
Q 1625 2713 2034 2713 
Q 2441 2713 2670 2916 
Q 2900 3119 2900 3481 
Q 2900 3844 2670 4047 
Q 2441 4250 2034 4250 
Q 1625 4250 1398 4047 
Q 1172 3844 1172 3481 
z
" transform="scale(0.015625)"/>
      </defs>
      <use xlink:href="#DejaVuSans-43"/>
      <use xlink:href="#DejaVuSans-6f" transform="translate(69.824219 0)"/>
      <use xlink:href="#DejaVuSans-6e" transform="translate(131.005859 0)"/>
      <use xlink:href="#DejaVuSans-74" transform="translate(194.384766 0)"/>
      <use xlink:href="#DejaVuSans-72" transform="translate(233.59375 0)"/>
      <use xlink:href="#DejaVuSans-61" transform="translate(274.707031 0)"/>
      <use xlink:href="#DejaVuSans-72" transform="translate(335.986328 0)"/>
      <use xlink:href="#DejaVuSans-69" transform="translate(377.099609 0)"/>
      <use xlink:href="#DejaVuSans-61" transform="translate(404.882812 0)"/>
      <use xlink:href="#DejaVuSans-6e" transform="translate(466.162109 0)"/>
      <use xlink:href="#DejaVuSans-20" transform="translate(529.541016 0)"/>
      <use xlink:href="#DejaVuSans-4c" transform="translate(561.328125 0)"/>
      <use xlink:href="#DejaVuSans-31" transform="translate(617.041016 0)"/>
      <use xlink:href="#DejaVuSans-38" transform="translate(680.664062 0)"/>
     </g>
    </g>
    <g id="line2d_33">
     <path d="M 66.280938 95.64875 
L 76.280938 95.64875 
L 86.280938 95.64875 
" style="fill: none; stroke-dasharray: 5.55,2.4; stroke-dashoffset: 0; stroke: #0000ff; stroke-opacity: 0.7; stroke-width: 1.5"/>
    </g>
    <g id="text_19">
     <!-- CoT L57 -->
     <g transform="translate(94.280938 99.14875) scale(0.1 -0.1)">
      <defs>
       <path id="DejaVuSans-37" d="M 525 4666 
L 3525 4666 
L 3525 4397 
L 1831 0 
L 1172 0 
L 2766 4134 
L 525 4134 
L 525 4666 
z
" transform="scale(0.015625)"/>
      </defs>
      <use xlink:href="#DejaVuSans-43"/>
      <use xlink:href="#DejaVuSans-6f" transform="translate(69.824219 0)"/>
      <use xlink:href="#DejaVuSans-54" transform="translate(131.005859 0)"/>
      <use xlink:href="#DejaVuSans-20" transform="translate(192.089844 0)"/>
      <use xlink:href="#DejaVuSans-4c" transform="translate(223.876953 0)"/>
      <use xlink:href="#DejaVuSans-35" transform="translate(279.589844 0)"/>
      <use xlink:href="#DejaVuSans-37" transform="translate(343.212891 0)"/>
     </g>
    </g>
   </g>
  </g>
 </g>
 <defs>
  <clipPath id="p40f82b0d93">
   <rect x="57.280938" y="23.837812" width="788.08" height="357.4"/>
  </clipPath>
 </defs>
</svg>
