<?xml version="1.0" encoding="utf-8" standalone="no"?>
<!DOCTYPE svg PUBLIC "-//W3C//DTD SVG 1.1//EN"
  "http://www.w3.org/Graphics/SVG/1.1/DTD/svg11.dtd">
<svg xmlns:xlink="http://www.w3.org/1999/xlink" width="834.116875pt" height="506.849687pt" viewBox="0 0 834.116875 506.849687" xmlns="http://www.w3.org/2000/svg" version="1.1">
 <metadata>
  <rdf:RDF xmlns:dc="http://purl.org/dc/elements/1.1/" xmlns:cc="http://creativecommons.org/ns#" xmlns:rdf="http://www.w3.org/1999/02/22-rdf-syntax-ns#">
   <cc:Work>
    <dc:type rdf:resource="http://purl.org/dc/dcmitype/StillImage"/>
    <dc:date>2025-12-30T18:56:50.499047</dc:date>
    <dc:format>image/svg+xml</dc:format>
    <dc:creator>
     <cc:Agent>
      <dc:title>Matplotlib v3.10.8, https://matplotlib.org/</dc:title>
     </cc:Agent>
    </dc:creator>
   </cc:Work>
  </rdf:RDF>
 </metadata>
 <defs>
  <style type="text/css">*{stroke-linejoin: round; stroke-linecap: butt}</style>
 </defs>
 <g id="figure_1">
  <g id="patch_1">
   <path d="M 0 506.849687 
L 834.116875 506.849687 
L 834.116875 0 
L 0 0 
z
" style="fill: #ffffff"/>
  </g>
  <g id="axes_1">
   <g id="patch_2">
    <path d="M 45.716875 467.357812 
L 826.916875 467.357812 
L 826.916875 23.837812 
L 45.716875 23.837812 
z
" style="fill: #ffffff"/>
   </g>
   <g id="matplotlib.axis_1">
    <g id="xtick_1">
     <g id="line2d_1">
      <path d="M 45.716875 467.357812 
L 45.716875 23.837812 
" clip-path="url(#pd470d33408)" style="fill: none; stroke: #b0b0b0; stroke-opacity: 0.3; stroke-width: 0.8; stroke-linecap: square"/>
     </g>
     <g id="line2d_2">
      <defs>
       <path id="mdf9959c81a" d="M 0 0 
L 0 3.5 
" style="stroke: #000000; stroke-width: 0.8"/>
      </defs>
      <g>
       <use xlink:href="#mdf9959c81a" x="45.716875" y="467.357812" style="stroke: #000000; stroke-width: 0.8"/>
      </g>
     </g>
     <g id="text_1">
      <!-- 0 -->
      <g transform="translate(42.535625 481.95625) scale(0.1 -0.1)">
       <defs>
        <path id="DejaVuSans-30" d="M 2034 4250 
Q 1547 4250 1301 3770 
Q 1056 3291 1056 2328 
Q 1056 1369 1301 889 
Q 1547 409 2034 409 
Q 2525 409 2770 889 
Q 3016 1369 3016 2328 
Q 3016 3291 2770 3770 
Q 2525 4250 2034 4250 
z
M 2034 4750 
Q 2819 4750 3233 4129 
Q 3647 3509 3647 2328 
Q 3647 1150 3233 529 
Q 2819 -91 2034 -91 
Q 1250 -91 836 529 
Q 422 1150 422 2328 
Q 422 3509 836 4129 
Q 1250 4750 2034 4750 
z
" transform="scale(0.015625)"/>
       </defs>
       <use xlink:href="#DejaVuSans-30"/>
      </g>
     </g>
    </g>
    <g id="xtick_2">
     <g id="line2d_3">
      <path d="M 173.782449 467.357812 
L 173.782449 23.837812 
" clip-path="url(#pd470d33408)" style="fill: none; stroke: #b0b0b0; stroke-opacity: 0.3; stroke-width: 0.8; stroke-linecap: square"/>
     </g>
     <g id="line2d_4">
      <g>
       <use xlink:href="#mdf9959c81a" x="173.782449" y="467.357812" style="stroke: #000000; stroke-width: 0.8"/>
      </g>
     </g>
     <g id="text_2">
      <!-- 10 -->
      <g transform="translate(167.419949 481.95625) scale(0.1 -0.1)">
       <defs>
        <path id="DejaVuSans-31" d="M 794 531 
L 1825 531 
L 1825 4091 
L 703 3866 
L 703 4441 
L 1819 4666 
L 2450 4666 
L 2450 531 
L 3481 531 
L 3481 0 
L 794 0 
L 794 531 
z
" transform="scale(0.015625)"/>
       </defs>
       <use xlink:href="#DejaVuSans-31"/>
       <use xlink:href="#DejaVuSans-30" transform="translate(63.623047 0)"/>
      </g>
     </g>
    </g>
    <g id="xtick_3">
     <g id="line2d_5">
      <path d="M 301.848023 467.357812 
L 301.848023 23.837812 
" clip-path="url(#pd470d33408)" style="fill: none; stroke: #b0b0b0; stroke-opacity: 0.3; stroke-width: 0.8; stroke-linecap: square"/>
     </g>
     <g id="line2d_6">
      <g>
       <use xlink:href="#mdf9959c81a" x="301.848023" y="467.357812" style="stroke: #000000; stroke-width: 0.8"/>
      </g>
     </g>
     <g id="text_3">
      <!-- 20 -->
      <g transform="translate(295.485523 481.95625) scale(0.1 -0.1)">
       <defs>
        <path id="DejaVuSans-32" d="M 1228 531 
L 3431 531 
L 3431 0 
L 469 0 
L 469 531 
Q 828 903 1448 1529 
Q 2069 2156 2228 2338 
Q 2531 2678 2651 2914 
Q 2772 3150 2772 3378 
Q 2772 3750 2511 3984 
Q 2250 4219 1831 4219 
Q 1534 4219 1204 4116 
Q 875 4013 500 3803 
L 500 4441 
Q 881 4594 1212 4672 
Q 1544 4750 1819 4750 
Q 2544 4750 2975 4387 
Q 3406 4025 3406 3419 
Q 3406 3131 3298 2873 
Q 3191 2616 2906 2266 
Q 2828 2175 2409 1742 
Q 1991 1309 1228 531 
z
" transform="scale(0.015625)"/>
       </defs>
       <use xlink:href="#DejaVuSans-32"/>
       <use xlink:href="#DejaVuSans-30" transform="translate(63.623047 0)"/>
      </g>
     </g>
    </g>
    <g id="xtick_4">
     <g id="line2d_7">
      <path d="M 429.913596 467.357812 
L 429.913596 23.837812 
" clip-path="url(#pd470d33408)" style="fill: none; stroke: #b0b0b0; stroke-opacity: 0.3; stroke-width: 0.8; stroke-linecap: square"/>
     </g>
     <g id="line2d_8">
      <g>
       <use xlink:href="#mdf9959c81a" x="429.913596" y="467.357812" style="stroke: #000000; stroke-width: 0.8"/>
      </g>
     </g>
     <g id="text_4">
      <!-- 30 -->
      <g transform="translate(423.551096 481.95625) scale(0.1 -0.1)">
       <defs>
        <path id="DejaVuSans-33" d="M 2597 2516 
Q 3050 2419 3304 2112 
Q 3559 1806 3559 1356 
Q 3559 666 3084 287 
Q 2609 -91 1734 -91 
Q 1441 -91 1130 -33 
Q 819 25 488 141 
L 488 750 
Q 750 597 1062 519 
Q 1375 441 1716 441 
Q 2309 441 2620 675 
Q 2931 909 2931 1356 
Q 2931 1769 2642 2001 
Q 2353 2234 1838 2234 
L 1294 2234 
L 1294 2753 
L 1863 2753 
Q 2328 2753 2575 2939 
Q 2822 3125 2822 3475 
Q 2822 3834 2567 4026 
Q 2313 4219 1838 4219 
Q 1578 4219 1281 4162 
Q 984 4106 628 3988 
L 628 4550 
Q 988 4650 1302 4700 
Q 1616 4750 1894 4750 
Q 2613 4750 3031 4423 
Q 3450 4097 3450 3541 
Q 3450 3153 3228 2886 
Q 3006 2619 2597 2516 
z
" transform="scale(0.015625)"/>
       </defs>
       <use xlink:href="#DejaVuSans-33"/>
       <use xlink:href="#DejaVuSans-30" transform="translate(63.623047 0)"/>
      </g>
     </g>
    </g>
    <g id="xtick_5">
     <g id="line2d_9">
      <path d="M 557.97917 467.357812 
L 557.97917 23.837812 
" clip-path="url(#pd470d33408)" style="fill: none; stroke: #b0b0b0; stroke-opacity: 0.3; stroke-width: 0.8; stroke-linecap: square"/>
     </g>
     <g id="line2d_10">
      <g>
       <use xlink:href="#mdf9959c81a" x="557.97917" y="467.357812" style="stroke: #000000; stroke-width: 0.8"/>
      </g>
     </g>
     <g id="text_5">
      <!-- 40 -->
      <g transform="translate(551.61667 481.95625) scale(0.1 -0.1)">
       <defs>
        <path id="DejaVuSans-34" d="M 2419 4116 
L 825 1625 
L 2419 1625 
L 2419 4116 
z
M 2253 4666 
L 3047 4666 
L 3047 1625 
L 3713 1625 
L 3713 1100 
L 3047 1100 
L 3047 0 
L 2419 0 
L 2419 1100 
L 313 1100 
L 313 1709 
L 2253 4666 
z
" transform="scale(0.015625)"/>
       </defs>
       <use xlink:href="#DejaVuSans-34"/>
       <use xlink:href="#DejaVuSans-30" transform="translate(63.623047 0)"/>
      </g>
     </g>
    </g>
    <g id="xtick_6">
     <g id="line2d_11">
      <path d="M 686.044744 467.357812 
L 686.044744 23.837812 
" clip-path="url(#pd470d33408)" style="fill: none; stroke: #b0b0b0; stroke-opacity: 0.3; stroke-width: 0.8; stroke-linecap: square"/>
     </g>
     <g id="line2d_12">
      <g>
       <use xlink:href="#mdf9959c81a" x="686.044744" y="467.357812" style="stroke: #000000; stroke-width: 0.8"/>
      </g>
     </g>
     <g id="text_6">
      <!-- 50 -->
      <g transform="translate(679.682244 481.95625) scale(0.1 -0.1)">
       <defs>
        <path id="DejaVuSans-35" d="M 691 4666 
L 3169 4666 
L 3169 4134 
L 1269 4134 
L 1269 2991 
Q 1406 3038 1543 3061 
Q 1681 3084 1819 3084 
Q 2600 3084 3056 2656 
Q 3513 2228 3513 1497 
Q 3513 744 3044 326 
Q 2575 -91 1722 -91 
Q 1428 -91 1123 -41 
Q 819 9 494 109 
L 494 744 
Q 775 591 1075 516 
Q 1375 441 1709 441 
Q 2250 441 2565 725 
Q 2881 1009 2881 1497 
Q 2881 1984 2565 2268 
Q 2250 2553 1709 2553 
Q 1456 2553 1204 2497 
Q 953 2441 691 2322 
L 691 4666 
z
" transform="scale(0.015625)"/>
       </defs>
       <use xlink:href="#DejaVuSans-35"/>
       <use xlink:href="#DejaVuSans-30" transform="translate(63.623047 0)"/>
      </g>
     </g>
    </g>
    <g id="xtick_7">
     <g id="line2d_13">
      <path d="M 814.110318 467.357812 
L 814.110318 23.837812 
" clip-path="url(#pd470d33408)" style="fill: none; stroke: #b0b0b0; stroke-opacity: 0.3; stroke-width: 0.8; stroke-linecap: square"/>
     </g>
     <g id="line2d_14">
      <g>
       <use xlink:href="#mdf9959c81a" x="814.110318" y="467.357812" style="stroke: #000000; stroke-width: 0.8"/>
      </g>
     </g>
     <g id="text_7">
      <!-- 60 -->
      <g transform="translate(807.747818 481.95625) scale(0.1 -0.1)">
       <defs>
        <path id="DejaVuSans-36" d="M 2113 2584 
Q 1688 2584 1439 2293 
Q 1191 2003 1191 1497 
Q 1191 994 1439 701 
Q 1688 409 2113 409 
Q 2538 409 2786 701 
Q 3034 994 3034 1497 
Q 3034 2003 2786 2293 
Q 2538 2584 2113 2584 
z
M 3366 4563 
L 3366 3988 
Q 3128 4100 2886 4159 
Q 2644 4219 2406 4219 
Q 1781 4219 1451 3797 
Q 1122 3375 1075 2522 
Q 1259 2794 1537 2939 
Q 1816 3084 2150 3084 
Q 2853 3084 3261 2657 
Q 3669 2231 3669 1497 
Q 3669 778 3244 343 
Q 2819 -91 2113 -91 
Q 1303 -91 875 529 
Q 447 1150 447 2328 
Q 447 3434 972 4092 
Q 1497 4750 2381 4750 
Q 2619 4750 2861 4703 
Q 3103 4656 3366 4563 
z
" transform="scale(0.015625)"/>
       </defs>
       <use xlink:href="#DejaVuSans-36"/>
       <use xlink:href="#DejaVuSans-30" transform="translate(63.623047 0)"/>
      </g>
     </g>
    </g>
    <g id="text_8">
     <!-- Layer -->
     <g transform="translate(419.587188 497.154062) scale(0.12 -0.12)">
      <defs>
       <path id="DejaVuSans-4c" d="M 628 4666 
L 1259 4666 
L 1259 531 
L 3531 531 
L 3531 0 
L 628 0 
L 628 4666 
z
" transform="scale(0.015625)"/>
       <path id="DejaVuSans-61" d="M 2194 1759 
Q 1497 1759 1228 1600 
Q 959 1441 959 1056 
Q 959 750 1161 570 
Q 1363 391 1709 391 
Q 2188 391 2477 730 
Q 2766 1069 2766 1631 
L 2766 1759 
L 2194 1759 
z
M 3341 1997 
L 3341 0 
L 2766 0 
L 2766 531 
Q 2569 213 2275 61 
Q 1981 -91 1556 -91 
Q 1019 -91 701 211 
Q 384 513 384 1019 
Q 384 1609 779 1909 
Q 1175 2209 1959 2209 
L 2766 2209 
L 2766 2266 
Q 2766 2663 2505 2880 
Q 2244 3097 1772 3097 
Q 1472 3097 1187 3025 
Q 903 2953 641 2809 
L 641 3341 
Q 956 3463 1253 3523 
Q 1550 3584 1831 3584 
Q 2591 3584 2966 3190 
Q 3341 2797 3341 1997 
z
" transform="scale(0.015625)"/>
       <path id="DejaVuSans-79" d="M 2059 -325 
Q 1816 -950 1584 -1140 
Q 1353 -1331 966 -1331 
L 506 -1331 
L 506 -850 
L 844 -850 
Q 1081 -850 1212 -737 
Q 1344 -625 1503 -206 
L 1606 56 
L 191 3500 
L 800 3500 
L 1894 763 
L 2988 3500 
L 3597 3500 
L 2059 -325 
z
" transform="scale(0.015625)"/>
       <path id="DejaVuSans-65" d="M 3597 1894 
L 3597 1613 
L 953 1613 
Q 991 1019 1311 708 
Q 1631 397 2203 397 
Q 2534 397 2845 478 
Q 3156 559 3463 722 
L 3463 178 
Q 3153 47 2828 -22 
Q 2503 -91 2169 -91 
Q 1331 -91 842 396 
Q 353 884 353 1716 
Q 353 2575 817 3079 
Q 1281 3584 2069 3584 
Q 2775 3584 3186 3129 
Q 3597 2675 3597 1894 
z
M 3022 2063 
Q 3016 2534 2758 2815 
Q 2500 3097 2075 3097 
Q 1594 3097 1305 2825 
Q 1016 2553 972 2059 
L 3022 2063 
z
" transform="scale(0.015625)"/>
       <path id="DejaVuSans-72" d="M 2631 2963 
Q 2534 3019 2420 3045 
Q 2306 3072 2169 3072 
Q 1681 3072 1420 2755 
Q 1159 2438 1159 1844 
L 1159 0 
L 581 0 
L 581 3500 
L 1159 3500 
L 1159 2956 
Q 1341 3275 1631 3429 
Q 1922 3584 2338 3584 
Q 2397 3584 2469 3576 
Q 2541 3569 2628 3553 
L 2631 2963 
z
" transform="scale(0.015625)"/>
      </defs>
      <use xlink:href="#DejaVuSans-4c"/>
      <use xlink:href="#DejaVuSans-61" transform="translate(55.712891 0)"/>
      <use xlink:href="#DejaVuSans-79" transform="translate(116.992188 0)"/>
      <use xlink:href="#DejaVuSans-65" transform="translate(176.171875 0)"/>
      <use xlink:href="#DejaVuSans-72" transform="translate(237.695312 0)"/>
     </g>
    </g>
   </g>
   <g id="matplotlib.axis_2">
    <g id="ytick_1">
     <g id="line2d_15">
      <path d="M 45.716875 467.357812 
L 826.916875 467.357812 
" clip-path="url(#pd470d33408)" style="fill: none; stroke: #b0b0b0; stroke-opacity: 0.3; stroke-width: 0.8; stroke-linecap: square"/>
     </g>
     <g id="line2d_16">
      <defs>
       <path id="mbb6be4fa46" d="M 0 0 
L -3.5 0 
" style="stroke: #000000; stroke-width: 0.8"/>
      </defs>
      <g>
       <use xlink:href="#mbb6be4fa46" x="45.716875" y="467.357812" style="stroke: #000000; stroke-width: 0.8"/>
      </g>
     </g>
     <g id="text_9">
      <!-- 0.0 -->
      <g transform="translate(22.81375 471.157031) scale(0.1 -0.1)">
       <defs>
        <path id="DejaVuSans-2e" d="M 684 794 
L 1344 794 
L 1344 0 
L 684 0 
L 684 794 
z
" transform="scale(0.015625)"/>
       </defs>
       <use xlink:href="#DejaVuSans-30"/>
       <use xlink:href="#DejaVuSans-2e" transform="translate(63.623047 0)"/>
       <use xlink:href="#DejaVuSans-30" transform="translate(95.410156 0)"/>
      </g>
     </g>
    </g>
    <g id="ytick_2">
     <g id="line2d_17">
      <path d="M 45.716875 378.653812 
L 826.916875 378.653812 
" clip-path="url(#pd470d33408)" style="fill: none; stroke: #b0b0b0; stroke-opacity: 0.3; stroke-width: 0.8; stroke-linecap: square"/>
     </g>
     <g id="line2d_18">
      <g>
       <use xlink:href="#mbb6be4fa46" x="45.716875" y="378.653812" style="stroke: #000000; stroke-width: 0.8"/>
      </g>
     </g>
     <g id="text_10">
      <!-- 0.2 -->
      <g transform="translate(22.81375 382.453031) scale(0.1 -0.1)">
       <use xlink:href="#DejaVuSans-30"/>
       <use xlink:href="#DejaVuSans-2e" transform="translate(63.623047 0)"/>
       <use xlink:href="#DejaVuSans-32" transform="translate(95.410156 0)"/>
      </g>
     </g>
    </g>
    <g id="ytick_3">
     <g id="line2d_19">
      <path d="M 45.716875 289.949812 
L 826.916875 289.949812 
" clip-path="url(#pd470d33408)" style="fill: none; stroke: #b0b0b0; stroke-opacity: 0.3; stroke-width: 0.8; stroke-linecap: square"/>
     </g>
     <g id="line2d_20">
      <g>
       <use xlink:href="#mbb6be4fa46" x="45.716875" y="289.949812" style="stroke: #000000; stroke-width: 0.8"/>
      </g>
     </g>
     <g id="text_11">
      <!-- 0.4 -->
      <g transform="translate(22.81375 293.749031) scale(0.1 -0.1)">
       <use xlink:href="#DejaVuSans-30"/>
       <use xlink:href="#DejaVuSans-2e" transform="translate(63.623047 0)"/>
       <use xlink:href="#DejaVuSans-34" transform="translate(95.410156 0)"/>
      </g>
     </g>
    </g>
    <g id="ytick_4">
     <g id="line2d_21">
      <path d="M 45.716875 201.245812 
L 826.916875 201.245812 
" clip-path="url(#pd470d33408)" style="fill: none; stroke: #b0b0b0; stroke-opacity: 0.3; stroke-width: 0.8; stroke-linecap: square"/>
     </g>
     <g id="line2d_22">
      <g>
       <use xlink:href="#mbb6be4fa46" x="45.716875" y="201.245812" style="stroke: #000000; stroke-width: 0.8"/>
      </g>
     </g>
     <g id="text_12">
      <!-- 0.6 -->
      <g transform="translate(22.81375 205.045031) scale(0.1 -0.1)">
       <use xlink:href="#DejaVuSans-30"/>
       <use xlink:href="#DejaVuSans-2e" transform="translate(63.623047 0)"/>
       <use xlink:href="#DejaVuSans-36" transform="translate(95.410156 0)"/>
      </g>
     </g>
    </g>
    <g id="ytick_5">
     <g id="line2d_23">
      <path d="M 45.716875 112.541812 
L 826.916875 112.541812 
" clip-path="url(#pd470d33408)" style="fill: none; stroke: #b0b0b0; stroke-opacity: 0.3; stroke-width: 0.8; stroke-linecap: square"/>
     </g>
     <g id="line2d_24">
      <g>
       <use xlink:href="#mbb6be4fa46" x="45.716875" y="112.541812" style="stroke: #000000; stroke-width: 0.8"/>
      </g>
     </g>
     <g id="text_13">
      <!-- 0.8 -->
      <g transform="translate(22.81375 116.341031) scale(0.1 -0.1)">
       <defs>
        <path id="DejaVuSans-38" d="M 2034 2216 
Q 1584 2216 1326 1975 
Q 1069 1734 1069 1313 
Q 1069 891 1326 650 
Q 1584 409 2034 409 
Q 2484 409 2743 651 
Q 3003 894 3003 1313 
Q 3003 1734 2745 1975 
Q 2488 2216 2034 2216 
z
M 1403 2484 
Q 997 2584 770 2862 
Q 544 3141 544 3541 
Q 544 4100 942 4425 
Q 1341 4750 2034 4750 
Q 2731 4750 3128 4425 
Q 3525 4100 3525 3541 
Q 3525 3141 3298 2862 
Q 3072 2584 2669 2484 
Q 3125 2378 3379 2068 
Q 3634 1759 3634 1313 
Q 3634 634 3220 271 
Q 2806 -91 2034 -91 
Q 1263 -91 848 271 
Q 434 634 434 1313 
Q 434 1759 690 2068 
Q 947 2378 1403 2484 
z
M 1172 3481 
Q 1172 3119 1398 2916 
Q 1625 2713 2034 2713 
Q 2441 2713 2670 2916 
Q 2900 3119 2900 3481 
Q 2900 3844 2670 4047 
Q 2441 4250 2034 4250 
Q 1625 4250 1398 4047 
Q 1172 3844 1172 3481 
z
" transform="scale(0.015625)"/>
       </defs>
       <use xlink:href="#DejaVuSans-30"/>
       <use xlink:href="#DejaVuSans-2e" transform="translate(63.623047 0)"/>
       <use xlink:href="#DejaVuSans-38" transform="translate(95.410156 0)"/>
      </g>
     </g>
    </g>
    <g id="ytick_6">
     <g id="line2d_25">
      <path d="M 45.716875 23.837812 
L 826.916875 23.837812 
" clip-path="url(#pd470d33408)" style="fill: none; stroke: #b0b0b0; stroke-opacity: 0.3; stroke-width: 0.8; stroke-linecap: square"/>
     </g>
     <g id="line2d_26">
      <g>
       <use xlink:href="#mbb6be4fa46" x="45.716875" y="23.837812" style="stroke: #000000; stroke-width: 0.8"/>
      </g>
     </g>
     <g id="text_14">
      <!-- 1.0 -->
      <g transform="translate(22.81375 27.637031) scale(0.1 -0.1)">
       <use xlink:href="#DejaVuSans-31"/>
       <use xlink:href="#DejaVuSans-2e" transform="translate(63.623047 0)"/>
       <use xlink:href="#DejaVuSans-30" transform="translate(95.410156 0)"/>
      </g>
     </g>
    </g>
    <g id="text_15">
     <!-- Answer Probability -->
     <g transform="translate(16.318125 301.317187) rotate(-90) scale(0.12 -0.12)">
      <defs>
       <path id="DejaVuSans-41" d="M 2188 4044 
L 1331 1722 
L 3047 1722 
L 2188 4044 
z
M 1831 4666 
L 2547 4666 
L 4325 0 
L 3669 0 
L 3244 1197 
L 1141 1197 
L 716 0 
L 50 0 
L 1831 4666 
z
" transform="scale(0.015625)"/>
       <path id="DejaVuSans-6e" d="M 3513 2113 
L 3513 0 
L 2938 0 
L 2938 2094 
Q 2938 2591 2744 2837 
Q 2550 3084 2163 3084 
Q 1697 3084 1428 2787 
Q 1159 2491 1159 1978 
L 1159 0 
L 581 0 
L 581 3500 
L 1159 3500 
L 1159 2956 
Q 1366 3272 1645 3428 
Q 1925 3584 2291 3584 
Q 2894 3584 3203 3211 
Q 3513 2838 3513 2113 
z
" transform="scale(0.015625)"/>
       <path id="DejaVuSans-73" d="M 2834 3397 
L 2834 2853 
Q 2591 2978 2328 3040 
Q 2066 3103 1784 3103 
Q 1356 3103 1142 2972 
Q 928 2841 928 2578 
Q 928 2378 1081 2264 
Q 1234 2150 1697 2047 
L 1894 2003 
Q 2506 1872 2764 1633 
Q 3022 1394 3022 966 
Q 3022 478 2636 193 
Q 2250 -91 1575 -91 
Q 1294 -91 989 -36 
Q 684 19 347 128 
L 347 722 
Q 666 556 975 473 
Q 1284 391 1588 391 
Q 1994 391 2212 530 
Q 2431 669 2431 922 
Q 2431 1156 2273 1281 
Q 2116 1406 1581 1522 
L 1381 1569 
Q 847 1681 609 1914 
Q 372 2147 372 2553 
Q 372 3047 722 3315 
Q 1072 3584 1716 3584 
Q 2034 3584 2315 3537 
Q 2597 3491 2834 3397 
z
" transform="scale(0.015625)"/>
       <path id="DejaVuSans-77" d="M 269 3500 
L 844 3500 
L 1563 769 
L 2278 3500 
L 2956 3500 
L 3675 769 
L 4391 3500 
L 4966 3500 
L 4050 0 
L 3372 0 
L 2619 2869 
L 1863 0 
L 1184 0 
L 269 3500 
z
" transform="scale(0.015625)"/>
       <path id="DejaVuSans-20" transform="scale(0.015625)"/>
       <path id="DejaVuSans-50" d="M 1259 4147 
L 1259 2394 
L 2053 2394 
Q 2494 2394 2734 2622 
Q 2975 2850 2975 3272 
Q 2975 3691 2734 3919 
Q 2494 4147 2053 4147 
L 1259 4147 
z
M 628 4666 
L 2053 4666 
Q 2838 4666 3239 4311 
Q 3641 3956 3641 3272 
Q 3641 2581 3239 2228 
Q 2838 1875 2053 1875 
L 1259 1875 
L 1259 0 
L 628 0 
L 628 4666 
z
" transform="scale(0.015625)"/>
       <path id="DejaVuSans-6f" d="M 1959 3097 
Q 1497 3097 1228 2736 
Q 959 2375 959 1747 
Q 959 1119 1226 758 
Q 1494 397 1959 397 
Q 2419 397 2687 759 
Q 2956 1122 2956 1747 
Q 2956 2369 2687 2733 
Q 2419 3097 1959 3097 
z
M 1959 3584 
Q 2709 3584 3137 3096 
Q 3566 2609 3566 1747 
Q 3566 888 3137 398 
Q 2709 -91 1959 -91 
Q 1206 -91 779 398 
Q 353 888 353 1747 
Q 353 2609 779 3096 
Q 1206 3584 1959 3584 
z
" transform="scale(0.015625)"/>
       <path id="DejaVuSans-62" d="M 3116 1747 
Q 3116 2381 2855 2742 
Q 2594 3103 2138 3103 
Q 1681 3103 1420 2742 
Q 1159 2381 1159 1747 
Q 1159 1113 1420 752 
Q 1681 391 2138 391 
Q 2594 391 2855 752 
Q 3116 1113 3116 1747 
z
M 1159 2969 
Q 1341 3281 1617 3432 
Q 1894 3584 2278 3584 
Q 2916 3584 3314 3078 
Q 3713 2572 3713 1747 
Q 3713 922 3314 415 
Q 2916 -91 2278 -91 
Q 1894 -91 1617 61 
Q 1341 213 1159 525 
L 1159 0 
L 581 0 
L 581 4863 
L 1159 4863 
L 1159 2969 
z
" transform="scale(0.015625)"/>
       <path id="DejaVuSans-69" d="M 603 3500 
L 1178 3500 
L 1178 0 
L 603 0 
L 603 3500 
z
M 603 4863 
L 1178 4863 
L 1178 4134 
L 603 4134 
L 603 4863 
z
" transform="scale(0.015625)"/>
       <path id="DejaVuSans-6c" d="M 603 4863 
L 1178 4863 
L 1178 0 
L 603 0 
L 603 4863 
z
" transform="scale(0.015625)"/>
       <path id="DejaVuSans-74" d="M 1172 4494 
L 1172 3500 
L 2356 3500 
L 2356 3053 
L 1172 3053 
L 1172 1153 
Q 1172 725 1289 603 
Q 1406 481 1766 481 
L 2356 481 
L 2356 0 
L 1766 0 
Q 1100 0 847 248 
Q 594 497 594 1153 
L 594 3053 
L 172 3053 
L 172 3500 
L 594 3500 
L 594 4494 
L 1172 4494 
z
" transform="scale(0.015625)"/>
      </defs>
      <use xlink:href="#DejaVuSans-41"/>
      <use xlink:href="#DejaVuSans-6e" transform="translate(68.408203 0)"/>
      <use xlink:href="#DejaVuSans-73" transform="translate(131.787109 0)"/>
      <use xlink:href="#DejaVuSans-77" transform="translate(183.886719 0)"/>
      <use xlink:href="#DejaVuSans-65" transform="translate(265.673828 0)"/>
      <use xlink:href="#DejaVuSans-72" transform="translate(327.197266 0)"/>
      <use xlink:href="#DejaVuSans-20" transform="translate(368.310547 0)"/>
      <use xlink:href="#DejaVuSans-50" transform="translate(400.097656 0)"/>
      <use xlink:href="#DejaVuSans-72" transform="translate(458.650391 0)"/>
      <use xlink:href="#DejaVuSans-6f" transform="translate(497.513672 0)"/>
      <use xlink:href="#DejaVuSans-62" transform="translate(558.695312 0)"/>
      <use xlink:href="#DejaVuSans-61" transform="translate(622.171875 0)"/>
      <use xlink:href="#DejaVuSans-62" transform="translate(683.451172 0)"/>
      <use xlink:href="#DejaVuSans-69" transform="translate(746.927734 0)"/>
      <use xlink:href="#DejaVuSans-6c" transform="translate(774.710938 0)"/>
      <use xlink:href="#DejaVuSans-69" transform="translate(802.494141 0)"/>
      <use xlink:href="#DejaVuSans-74" transform="translate(830.277344 0)"/>
      <use xlink:href="#DejaVuSans-79" transform="translate(869.486328 0)"/>
     </g>
    </g>
   </g>
   <g id="line2d_27">
    <path d="M 45.716875 467.357812 
L 58.523432 467.357812 
L 71.32999 467.357812 
L 84.136547 467.357812 
L 96.943105 467.357812 
L 109.749662 467.357812 
L 122.556219 467.357812 
L 135.362777 467.357812 
L 148.169334 467.357812 
L 160.975891 467.357812 
L 173.782449 467.357812 
L 186.589006 467.357812 
L 199.395564 467.357812 
L 212.202121 467.357812 
L 225.008678 467.357411 
L 237.815236 467.285872 
L 250.621793 466.413229 
L 263.42835 465.776703 
L 276.234908 466.395634 
L 289.041465 467.090235 
L 301.848023 467.308334 
L 314.65458 467.329576 
L 327.461137 467.338085 
L 340.267695 467.337992 
L 353.074252 467.342229 
L 365.880809 467.340707 
L 378.687367 467.336889 
L 391.493924 467.32509 
L 404.300482 467.303088 
L 417.107039 467.25161 
L 429.913596 467.173648 
L 442.720154 467.207324 
L 455.526711 467.226391 
L 468.333268 467.189966 
L 481.139826 467.28021 
L 493.946383 467.302807 
L 506.752941 467.2805 
L 519.559498 467.288453 
L 532.366055 467.32084 
L 545.172613 467.279258 
L 557.97917 467.053283 
L 570.785727 467.136542 
L 583.592285 467.063071 
L 596.398842 466.959381 
L 609.2054 466.83236 
L 622.011957 466.89043 
L 634.818514 467.046898 
L 647.625072 466.706261 
L 660.431629 466.666717 
L 673.238186 466.732325 
L 686.044744 466.420386 
L 698.851301 466.29778 
L 711.657859 463.45455 
L 724.464416 463.533914 
L 737.270973 461.958534 
L 750.077531 466.285078 
L 762.884088 466.725447 
L 775.690645 466.988899 
L 788.497203 467.238692 
L 801.30376 467.279946 
L 814.110318 467.276165 
L 826.916875 467.287141 
" clip-path="url(#pd470d33408)" style="fill: none; stroke: #2ecc71; stroke-width: 2; stroke-linecap: square"/>
    <defs>
     <path id="m5167d2f0da" d="M 0 1.5 
C 0.397805 1.5 0.77937 1.341951 1.06066 1.06066 
C 1.341951 0.77937 1.5 0.397805 1.5 0 
C 1.5 -0.397805 1.341951 -0.77937 1.06066 -1.06066 
C 0.77937 -1.341951 0.397805 -1.5 0 -1.5 
C -0.397805 -1.5 -0.77937 -1.341951 -1.06066 -1.06066 
C -1.341951 -0.77937 -1.5 -0.397805 -1.5 0 
C -1.5 0.397805 -1.341951 0.77937 -1.06066 1.06066 
C -0.77937 1.341951 -0.397805 1.5 0 1.5 
z
" style="stroke: #2ecc71"/>
    </defs>
    <g clip-path="url(#pd470d33408)">
     <use xlink:href="#m5167d2f0da" x="45.716875" y="467.357812" style="fill: #2ecc71; stroke: #2ecc71"/>
     <use xlink:href="#m5167d2f0da" x="58.523432" y="467.357812" style="fill: #2ecc71; stroke: #2ecc71"/>
     <use xlink:href="#m5167d2f0da" x="71.32999" y="467.357812" style="fill: #2ecc71; stroke: #2ecc71"/>
     <use xlink:href="#m5167d2f0da" x="84.136547" y="467.357812" style="fill: #2ecc71; stroke: #2ecc71"/>
     <use xlink:href="#m5167d2f0da" x="96.943105" y="467.357812" style="fill: #2ecc71; stroke: #2ecc71"/>
     <use xlink:href="#m5167d2f0da" x="109.749662" y="467.357812" style="fill: #2ecc71; stroke: #2ecc71"/>
     <use xlink:href="#m5167d2f0da" x="122.556219" y="467.357812" style="fill: #2ecc71; stroke: #2ecc71"/>
     <use xlink:href="#m5167d2f0da" x="135.362777" y="467.357812" style="fill: #2ecc71; stroke: #2ecc71"/>
     <use xlink:href="#m5167d2f0da" x="148.169334" y="467.357812" style="fill: #2ecc71; stroke: #2ecc71"/>
     <use xlink:href="#m5167d2f0da" x="160.975891" y="467.357812" style="fill: #2ecc71; stroke: #2ecc71"/>
     <use xlink:href="#m5167d2f0da" x="173.782449" y="467.357812" style="fill: #2ecc71; stroke: #2ecc71"/>
     <use xlink:href="#m5167d2f0da" x="186.589006" y="467.357812" style="fill: #2ecc71; stroke: #2ecc71"/>
     <use xlink:href="#m5167d2f0da" x="199.395564" y="467.357812" style="fill: #2ecc71; stroke: #2ecc71"/>
     <use xlink:href="#m5167d2f0da" x="212.202121" y="467.357812" style="fill: #2ecc71; stroke: #2ecc71"/>
     <use xlink:href="#m5167d2f0da" x="225.008678" y="467.357411" style="fill: #2ecc71; stroke: #2ecc71"/>
     <use xlink:href="#m5167d2f0da" x="237.815236" y="467.285872" style="fill: #2ecc71; stroke: #2ecc71"/>
     <use xlink:href="#m5167d2f0da" x="250.621793" y="466.413229" style="fill: #2ecc71; stroke: #2ecc71"/>
     <use xlink:href="#m5167d2f0da" x="263.42835" y="465.776703" style="fill: #2ecc71; stroke: #2ecc71"/>
     <use xlink:href="#m5167d2f0da" x="276.234908" y="466.395634" style="fill: #2ecc71; stroke: #2ecc71"/>
     <use xlink:href="#m5167d2f0da" x="289.041465" y="467.090235" style="fill: #2ecc71; stroke: #2ecc71"/>
     <use xlink:href="#m5167d2f0da" x="301.848023" y="467.308334" style="fill: #2ecc71; stroke: #2ecc71"/>
     <use xlink:href="#m5167d2f0da" x="314.65458" y="467.329576" style="fill: #2ecc71; stroke: #2ecc71"/>
     <use xlink:href="#m5167d2f0da" x="327.461137" y="467.338085" style="fill: #2ecc71; stroke: #2ecc71"/>
     <use xlink:href="#m5167d2f0da" x="340.267695" y="467.337992" style="fill: #2ecc71; stroke: #2ecc71"/>
     <use xlink:href="#m5167d2f0da" x="353.074252" y="467.342229" style="fill: #2ecc71; stroke: #2ecc71"/>
     <use xlink:href="#m5167d2f0da" x="365.880809" y="467.340707" style="fill: #2ecc71; stroke: #2ecc71"/>
     <use xlink:href="#m5167d2f0da" x="378.687367" y="467.336889" style="fill: #2ecc71; stroke: #2ecc71"/>
     <use xlink:href="#m5167d2f0da" x="391.493924" y="467.32509" style="fill: #2ecc71; stroke: #2ecc71"/>
     <use xlink:href="#m5167d2f0da" x="404.300482" y="467.303088" style="fill: #2ecc71; stroke: #2ecc71"/>
     <use xlink:href="#m5167d2f0da" x="417.107039" y="467.25161" style="fill: #2ecc71; stroke: #2ecc71"/>
     <use xlink:href="#m5167d2f0da" x="429.913596" y="467.173648" style="fill: #2ecc71; stroke: #2ecc71"/>
     <use xlink:href="#m5167d2f0da" x="442.720154" y="467.207324" style="fill: #2ecc71; stroke: #2ecc71"/>
     <use xlink:href="#m5167d2f0da" x="455.526711" y="467.226391" style="fill: #2ecc71; stroke: #2ecc71"/>
     <use xlink:href="#m5167d2f0da" x="468.333268" y="467.189966" style="fill: #2ecc71; stroke: #2ecc71"/>
     <use xlink:href="#m5167d2f0da" x="481.139826" y="467.28021" style="fill: #2ecc71; stroke: #2ecc71"/>
     <use xlink:href="#m5167d2f0da" x="493.946383" y="467.302807" style="fill: #2ecc71; stroke: #2ecc71"/>
     <use xlink:href="#m5167d2f0da" x="506.752941" y="467.2805" style="fill: #2ecc71; stroke: #2ecc71"/>
     <use xlink:href="#m5167d2f0da" x="519.559498" y="467.288453" style="fill: #2ecc71; stroke: #2ecc71"/>
     <use xlink:href="#m5167d2f0da" x="532.366055" y="467.32084" style="fill: #2ecc71; stroke: #2ecc71"/>
     <use xlink:href="#m5167d2f0da" x="545.172613" y="467.279258" style="fill: #2ecc71; stroke: #2ecc71"/>
     <use xlink:href="#m5167d2f0da" x="557.97917" y="467.053283" style="fill: #2ecc71; stroke: #2ecc71"/>
     <use xlink:href="#m5167d2f0da" x="570.785727" y="467.136542" style="fill: #2ecc71; stroke: #2ecc71"/>
     <use xlink:href="#m5167d2f0da" x="583.592285" y="467.063071" style="fill: #2ecc71; stroke: #2ecc71"/>
     <use xlink:href="#m5167d2f0da" x="596.398842" y="466.959381" style="fill: #2ecc71; stroke: #2ecc71"/>
     <use xlink:href="#m5167d2f0da" x="609.2054" y="466.83236" style="fill: #2ecc71; stroke: #2ecc71"/>
     <use xlink:href="#m5167d2f0da" x="622.011957" y="466.89043" style="fill: #2ecc71; stroke: #2ecc71"/>
     <use xlink:href="#m5167d2f0da" x="634.818514" y="467.046898" style="fill: #2ecc71; stroke: #2ecc71"/>
     <use xlink:href="#m5167d2f0da" x="647.625072" y="466.706261" style="fill: #2ecc71; stroke: #2ecc71"/>
     <use xlink:href="#m5167d2f0da" x="660.431629" y="466.666717" style="fill: #2ecc71; stroke: #2ecc71"/>
     <use xlink:href="#m5167d2f0da" x="673.238186" y="466.732325" style="fill: #2ecc71; stroke: #2ecc71"/>
     <use xlink:href="#m5167d2f0da" x="686.044744" y="466.420386" style="fill: #2ecc71; stroke: #2ecc71"/>
     <use xlink:href="#m5167d2f0da" x="698.851301" y="466.29778" style="fill: #2ecc71; stroke: #2ecc71"/>
     <use xlink:href="#m5167d2f0da" x="711.657859" y="463.45455" style="fill: #2ecc71; stroke: #2ecc71"/>
     <use xlink:href="#m5167d2f0da" x="724.464416" y="463.533914" style="fill: #2ecc71; stroke: #2ecc71"/>
     <use xlink:href="#m5167d2f0da" x="737.270973" y="461.958534" style="fill: #2ecc71; stroke: #2ecc71"/>
     <use xlink:href="#m5167d2f0da" x="750.077531" y="466.285078" style="fill: #2ecc71; stroke: #2ecc71"/>
     <use xlink:href="#m5167d2f0da" x="762.884088" y="466.725447" style="fill: #2ecc71; stroke: #2ecc71"/>
     <use xlink:href="#m5167d2f0da" x="775.690645" y="466.988899" style="fill: #2ecc71; stroke: #2ecc71"/>
     <use xlink:href="#m5167d2f0da" x="788.497203" y="467.238692" style="fill: #2ecc71; stroke: #2ecc71"/>
     <use xlink:href="#m5167d2f0da" x="801.30376" y="467.279946" style="fill: #2ecc71; stroke: #2ecc71"/>
     <use xlink:href="#m5167d2f0da" x="814.110318" y="467.276165" style="fill: #2ecc71; stroke: #2ecc71"/>
     <use xlink:href="#m5167d2f0da" x="826.916875" y="467.287141" style="fill: #2ecc71; stroke: #2ecc71"/>
    </g>
   </g>
   <g id="line2d_28">
    <path d="M 32.910318 467.357812 
L 32.910318 23.837812 
" clip-path="url(#pd470d33408)" style="fill: none; stroke-dasharray: 5.55,2.4; stroke-dashoffset: 0; stroke: #2ecc71; stroke-opacity: 0.5; stroke-width: 1.5"/>
   </g>
   <g id="line2d_29">
    <path d="M 45.716875 467.357812 
L 58.523432 467.357812 
L 71.32999 467.357812 
L 84.136547 467.357812 
L 96.943105 467.357812 
L 109.749662 467.357812 
L 122.556219 467.357812 
L 135.362777 467.357812 
L 148.169334 467.357812 
L 160.975891 467.357812 
L 173.782449 467.357812 
L 186.589006 467.357812 
L 199.395564 467.357812 
L 212.202121 467.357812 
L 225.008678 467.357532 
L 237.815236 467.284571 
L 250.621793 466.498133 
L 263.42835 465.445966 
L 276.234908 465.509008 
L 289.041465 466.606555 
L 301.848023 467.267524 
L 314.65458 467.314943 
L 327.461137 467.328403 
L 340.267695 467.326793 
L 353.074252 467.337827 
L 365.880809 467.334331 
L 378.687367 467.328918 
L 391.493924 467.312353 
L 404.300482 467.297151 
L 417.107039 467.216992 
L 429.913596 467.159944 
L 442.720154 467.199295 
L 455.526711 467.243975 
L 468.333268 467.141443 
L 481.139826 467.255497 
L 493.946383 467.277194 
L 506.752941 467.259643 
L 519.559498 467.263166 
L 532.366055 467.267586 
L 545.172613 467.26858 
L 557.97917 467.096671 
L 570.785727 467.042686 
L 583.592285 466.951991 
L 596.398842 466.949209 
L 609.2054 466.754358 
L 622.011957 466.903644 
L 634.818514 467.043335 
L 647.625072 466.921747 
L 660.431629 466.890275 
L 673.238186 466.986319 
L 686.044744 466.679787 
L 698.851301 466.885192 
L 711.657859 464.376655 
L 724.464416 464.818877 
L 737.270973 465.128778 
L 750.077531 467.218845 
L 762.884088 467.278617 
L 775.690645 467.332731 
L 788.497203 467.336128 
L 801.30376 467.337014 
L 814.110318 467.2966 
L 826.916875 467.263362 
" clip-path="url(#pd470d33408)" style="fill: none; stroke: #3498db; stroke-width: 2; stroke-linecap: square"/>
    <defs>
     <path id="m3af97c3abf" d="M 0 1.5 
C 0.397805 1.5 0.77937 1.341951 1.06066 1.06066 
C 1.341951 0.77937 1.5 0.397805 1.5 0 
C 1.5 -0.397805 1.341951 -0.77937 1.06066 -1.06066 
C 0.77937 -1.341951 0.397805 -1.5 0 -1.5 
C -0.397805 -1.5 -0.77937 -1.341951 -1.06066 -1.06066 
C -1.341951 -0.77937 -1.5 -0.397805 -1.5 0 
C -1.5 0.397805 -1.341951 0.77937 -1.06066 1.06066 
C -0.77937 1.341951 -0.397805 1.5 0 1.5 
z
" style="stroke: #3498db"/>
    </defs>
    <g clip-path="url(#pd470d33408)">
     <use xlink:href="#m3af97c3abf" x="45.716875" y="467.357812" style="fill: #3498db; stroke: #3498db"/>
     <use xlink:href="#m3af97c3abf" x="58.523432" y="467.357812" style="fill: #3498db; stroke: #3498db"/>
     <use xlink:href="#m3af97c3abf" x="71.32999" y="467.357812" style="fill: #3498db; stroke: #3498db"/>
     <use xlink:href="#m3af97c3abf" x="84.136547" y="467.357812" style="fill: #3498db; stroke: #3498db"/>
     <use xlink:href="#m3af97c3abf" x="96.943105" y="467.357812" style="fill: #3498db; stroke: #3498db"/>
     <use xlink:href="#m3af97c3abf" x="109.749662" y="467.357812" style="fill: #3498db; stroke: #3498db"/>
     <use xlink:href="#m3af97c3abf" x="122.556219" y="467.357812" style="fill: #3498db; stroke: #3498db"/>
     <use xlink:href="#m3af97c3abf" x="135.362777" y="467.357812" style="fill: #3498db; stroke: #3498db"/>
     <use xlink:href="#m3af97c3abf" x="148.169334" y="467.357812" style="fill: #3498db; stroke: #3498db"/>
     <use xlink:href="#m3af97c3abf" x="160.975891" y="467.357812" style="fill: #3498db; stroke: #3498db"/>
     <use xlink:href="#m3af97c3abf" x="173.782449" y="467.357812" style="fill: #3498db; stroke: #3498db"/>
     <use xlink:href="#m3af97c3abf" x="186.589006" y="467.357812" style="fill: #3498db; stroke: #3498db"/>
     <use xlink:href="#m3af97c3abf" x="199.395564" y="467.357812" style="fill: #3498db; stroke: #3498db"/>
     <use xlink:href="#m3af97c3abf" x="212.202121" y="467.357812" style="fill: #3498db; stroke: #3498db"/>
     <use xlink:href="#m3af97c3abf" x="225.008678" y="467.357532" style="fill: #3498db; stroke: #3498db"/>
     <use xlink:href="#m3af97c3abf" x="237.815236" y="467.284571" style="fill: #3498db; stroke: #3498db"/>
     <use xlink:href="#m3af97c3abf" x="250.621793" y="466.498133" style="fill: #3498db; stroke: #3498db"/>
     <use xlink:href="#m3af97c3abf" x="263.42835" y="465.445966" style="fill: #3498db; stroke: #3498db"/>
     <use xlink:href="#m3af97c3abf" x="276.234908" y="465.509008" style="fill: #3498db; stroke: #3498db"/>
     <use xlink:href="#m3af97c3abf" x="289.041465" y="466.606555" style="fill: #3498db; stroke: #3498db"/>
     <use xlink:href="#m3af97c3abf" x="301.848023" y="467.267524" style="fill: #3498db; stroke: #3498db"/>
     <use xlink:href="#m3af97c3abf" x="314.65458" y="467.314943" style="fill: #3498db; stroke: #3498db"/>
     <use xlink:href="#m3af97c3abf" x="327.461137" y="467.328403" style="fill: #3498db; stroke: #3498db"/>
     <use xlink:href="#m3af97c3abf" x="340.267695" y="467.326793" style="fill: #3498db; stroke: #3498db"/>
     <use xlink:href="#m3af97c3abf" x="353.074252" y="467.337827" style="fill: #3498db; stroke: #3498db"/>
     <use xlink:href="#m3af97c3abf" x="365.880809" y="467.334331" style="fill: #3498db; stroke: #3498db"/>
     <use xlink:href="#m3af97c3abf" x="378.687367" y="467.328918" style="fill: #3498db; stroke: #3498db"/>
     <use xlink:href="#m3af97c3abf" x="391.493924" y="467.312353" style="fill: #3498db; stroke: #3498db"/>
     <use xlink:href="#m3af97c3abf" x="404.300482" y="467.297151" style="fill: #3498db; stroke: #3498db"/>
     <use xlink:href="#m3af97c3abf" x="417.107039" y="467.216992" style="fill: #3498db; stroke: #3498db"/>
     <use xlink:href="#m3af97c3abf" x="429.913596" y="467.159944" style="fill: #3498db; stroke: #3498db"/>
     <use xlink:href="#m3af97c3abf" x="442.720154" y="467.199295" style="fill: #3498db; stroke: #3498db"/>
     <use xlink:href="#m3af97c3abf" x="455.526711" y="467.243975" style="fill: #3498db; stroke: #3498db"/>
     <use xlink:href="#m3af97c3abf" x="468.333268" y="467.141443" style="fill: #3498db; stroke: #3498db"/>
     <use xlink:href="#m3af97c3abf" x="481.139826" y="467.255497" style="fill: #3498db; stroke: #3498db"/>
     <use xlink:href="#m3af97c3abf" x="493.946383" y="467.277194" style="fill: #3498db; stroke: #3498db"/>
     <use xlink:href="#m3af97c3abf" x="506.752941" y="467.259643" style="fill: #3498db; stroke: #3498db"/>
     <use xlink:href="#m3af97c3abf" x="519.559498" y="467.263166" style="fill: #3498db; stroke: #3498db"/>
     <use xlink:href="#m3af97c3abf" x="532.366055" y="467.267586" style="fill: #3498db; stroke: #3498db"/>
     <use xlink:href="#m3af97c3abf" x="545.172613" y="467.26858" style="fill: #3498db; stroke: #3498db"/>
     <use xlink:href="#m3af97c3abf" x="557.97917" y="467.096671" style="fill: #3498db; stroke: #3498db"/>
     <use xlink:href="#m3af97c3abf" x="570.785727" y="467.042686" style="fill: #3498db; stroke: #3498db"/>
     <use xlink:href="#m3af97c3abf" x="583.592285" y="466.951991" style="fill: #3498db; stroke: #3498db"/>
     <use xlink:href="#m3af97c3abf" x="596.398842" y="466.949209" style="fill: #3498db; stroke: #3498db"/>
     <use xlink:href="#m3af97c3abf" x="609.2054" y="466.754358" style="fill: #3498db; stroke: #3498db"/>
     <use xlink:href="#m3af97c3abf" x="622.011957" y="466.903644" style="fill: #3498db; stroke: #3498db"/>
     <use xlink:href="#m3af97c3abf" x="634.818514" y="467.043335" style="fill: #3498db; stroke: #3498db"/>
     <use xlink:href="#m3af97c3abf" x="647.625072" y="466.921747" style="fill: #3498db; stroke: #3498db"/>
     <use xlink:href="#m3af97c3abf" x="660.431629" y="466.890275" style="fill: #3498db; stroke: #3498db"/>
     <use xlink:href="#m3af97c3abf" x="673.238186" y="466.986319" style="fill: #3498db; stroke: #3498db"/>
     <use xlink:href="#m3af97c3abf" x="686.044744" y="466.679787" style="fill: #3498db; stroke: #3498db"/>
     <use xlink:href="#m3af97c3abf" x="698.851301" y="466.885192" style="fill: #3498db; stroke: #3498db"/>
     <use xlink:href="#m3af97c3abf" x="711.657859" y="464.376655" style="fill: #3498db; stroke: #3498db"/>
     <use xlink:href="#m3af97c3abf" x="724.464416" y="464.818877" style="fill: #3498db; stroke: #3498db"/>
     <use xlink:href="#m3af97c3abf" x="737.270973" y="465.128778" style="fill: #3498db; stroke: #3498db"/>
     <use xlink:href="#m3af97c3abf" x="750.077531" y="467.218845" style="fill: #3498db; stroke: #3498db"/>
     <use xlink:href="#m3af97c3abf" x="762.884088" y="467.278617" style="fill: #3498db; stroke: #3498db"/>
     <use xlink:href="#m3af97c3abf" x="775.690645" y="467.332731" style="fill: #3498db; stroke: #3498db"/>
     <use xlink:href="#m3af97c3abf" x="788.497203" y="467.336128" style="fill: #3498db; stroke: #3498db"/>
     <use xlink:href="#m3af97c3abf" x="801.30376" y="467.337014" style="fill: #3498db; stroke: #3498db"/>
     <use xlink:href="#m3af97c3abf" x="814.110318" y="467.2966" style="fill: #3498db; stroke: #3498db"/>
     <use xlink:href="#m3af97c3abf" x="826.916875" y="467.263362" style="fill: #3498db; stroke: #3498db"/>
    </g>
   </g>
   <g id="line2d_30">
    <path d="M 212.202121 467.357812 
L 212.202121 23.837812 
" clip-path="url(#pd470d33408)" style="fill: none; stroke-dasharray: 5.55,2.4; stroke-dashoffset: 0; stroke: #3498db; stroke-opacity: 0.5; stroke-width: 1.5"/>
   </g>
   <g id="line2d_31">
    <path d="M 45.716875 467.357812 
L 58.523432 467.357812 
L 71.32999 467.357812 
L 84.136547 467.357812 
L 96.943105 467.357812 
L 109.749662 467.357812 
L 122.556219 467.357812 
L 135.362777 467.357812 
L 148.169334 467.357812 
L 160.975891 467.357812 
L 173.782449 467.357812 
L 186.589006 467.357812 
L 199.395564 467.357812 
L 212.202121 467.357811 
L 225.008678 467.356286 
L 237.815236 467.224913 
L 250.621793 466.311586 
L 263.42835 464.914573 
L 276.234908 465.619404 
L 289.041465 466.816892 
L 301.848023 467.285917 
L 314.65458 467.324864 
L 327.461137 467.334057 
L 340.267695 467.335372 
L 353.074252 467.342427 
L 365.880809 467.340713 
L 378.687367 467.331959 
L 391.493924 467.317618 
L 404.300482 467.292874 
L 417.107039 467.197206 
L 429.913596 467.087036 
L 442.720154 467.175608 
L 455.526711 467.178783 
L 468.333268 467.097977 
L 481.139826 467.249829 
L 493.946383 467.273248 
L 506.752941 467.254621 
L 519.559498 467.264119 
L 532.366055 467.310342 
L 545.172613 467.259924 
L 557.97917 467.024614 
L 570.785727 467.121395 
L 583.592285 467.043247 
L 596.398842 466.886342 
L 609.2054 466.806936 
L 622.011957 466.866094 
L 634.818514 466.912501 
L 647.625072 466.694581 
L 660.431629 466.89427 
L 673.238186 466.895418 
L 686.044744 466.615594 
L 698.851301 466.452731 
L 711.657859 464.826709 
L 724.464416 464.627763 
L 737.270973 464.226639 
L 750.077531 466.977295 
L 762.884088 466.920101 
L 775.690645 467.138117 
L 788.497203 467.292199 
L 801.30376 467.338541 
L 814.110318 467.322217 
L 826.916875 467.228543 
" clip-path="url(#pd470d33408)" style="fill: none; stroke: #e74c3c; stroke-width: 2; stroke-linecap: square"/>
    <defs>
     <path id="m24ea9a3ed0" d="M 0 1.5 
C 0.397805 1.5 0.77937 1.341951 1.06066 1.06066 
C 1.341951 0.77937 1.5 0.397805 1.5 0 
C 1.5 -0.397805 1.341951 -0.77937 1.06066 -1.06066 
C 0.77937 -1.341951 0.397805 -1.5 0 -1.5 
C -0.397805 -1.5 -0.77937 -1.341951 -1.06066 -1.06066 
C -1.341951 -0.77937 -1.5 -0.397805 -1.5 0 
C -1.5 0.397805 -1.341951 0.77937 -1.06066 1.06066 
C -0.77937 1.341951 -0.397805 1.5 0 1.5 
z
" style="stroke: #e74c3c"/>
    </defs>
    <g clip-path="url(#pd470d33408)">
     <use xlink:href="#m24ea9a3ed0" x="45.716875" y="467.357812" style="fill: #e74c3c; stroke: #e74c3c"/>
     <use xlink:href="#m24ea9a3ed0" x="58.523432" y="467.357812" style="fill: #e74c3c; stroke: #e74c3c"/>
     <use xlink:href="#m24ea9a3ed0" x="71.32999" y="467.357812" style="fill: #e74c3c; stroke: #e74c3c"/>
     <use xlink:href="#m24ea9a3ed0" x="84.136547" y="467.357812" style="fill: #e74c3c; stroke: #e74c3c"/>
     <use xlink:href="#m24ea9a3ed0" x="96.943105" y="467.357812" style="fill: #e74c3c; stroke: #e74c3c"/>
     <use xlink:href="#m24ea9a3ed0" x="109.749662" y="467.357812" style="fill: #e74c3c; stroke: #e74c3c"/>
     <use xlink:href="#m24ea9a3ed0" x="122.556219" y="467.357812" style="fill: #e74c3c; stroke: #e74c3c"/>
     <use xlink:href="#m24ea9a3ed0" x="135.362777" y="467.357812" style="fill: #e74c3c; stroke: #e74c3c"/>
     <use xlink:href="#m24ea9a3ed0" x="148.169334" y="467.357812" style="fill: #e74c3c; stroke: #e74c3c"/>
     <use xlink:href="#m24ea9a3ed0" x="160.975891" y="467.357812" style="fill: #e74c3c; stroke: #e74c3c"/>
     <use xlink:href="#m24ea9a3ed0" x="173.782449" y="467.357812" style="fill: #e74c3c; stroke: #e74c3c"/>
     <use xlink:href="#m24ea9a3ed0" x="186.589006" y="467.357812" style="fill: #e74c3c; stroke: #e74c3c"/>
     <use xlink:href="#m24ea9a3ed0" x="199.395564" y="467.357812" style="fill: #e74c3c; stroke: #e74c3c"/>
     <use xlink:href="#m24ea9a3ed0" x="212.202121" y="467.357811" style="fill: #e74c3c; stroke: #e74c3c"/>
     <use xlink:href="#m24ea9a3ed0" x="225.008678" y="467.356286" style="fill: #e74c3c; stroke: #e74c3c"/>
     <use xlink:href="#m24ea9a3ed0" x="237.815236" y="467.224913" style="fill: #e74c3c; stroke: #e74c3c"/>
     <use xlink:href="#m24ea9a3ed0" x="250.621793" y="466.311586" style="fill: #e74c3c; stroke: #e74c3c"/>
     <use xlink:href="#m24ea9a3ed0" x="263.42835" y="464.914573" style="fill: #e74c3c; stroke: #e74c3c"/>
     <use xlink:href="#m24ea9a3ed0" x="276.234908" y="465.619404" style="fill: #e74c3c; stroke: #e74c3c"/>
     <use xlink:href="#m24ea9a3ed0" x="289.041465" y="466.816892" style="fill: #e74c3c; stroke: #e74c3c"/>
     <use xlink:href="#m24ea9a3ed0" x="301.848023" y="467.285917" style="fill: #e74c3c; stroke: #e74c3c"/>
     <use xlink:href="#m24ea9a3ed0" x="314.65458" y="467.324864" style="fill: #e74c3c; stroke: #e74c3c"/>
     <use xlink:href="#m24ea9a3ed0" x="327.461137" y="467.334057" style="fill: #e74c3c; stroke: #e74c3c"/>
     <use xlink:href="#m24ea9a3ed0" x="340.267695" y="467.335372" style="fill: #e74c3c; stroke: #e74c3c"/>
     <use xlink:href="#m24ea9a3ed0" x="353.074252" y="467.342427" style="fill: #e74c3c; stroke: #e74c3c"/>
     <use xlink:href="#m24ea9a3ed0" x="365.880809" y="467.340713" style="fill: #e74c3c; stroke: #e74c3c"/>
     <use xlink:href="#m24ea9a3ed0" x="378.687367" y="467.331959" style="fill: #e74c3c; stroke: #e74c3c"/>
     <use xlink:href="#m24ea9a3ed0" x="391.493924" y="467.317618" style="fill: #e74c3c; stroke: #e74c3c"/>
     <use xlink:href="#m24ea9a3ed0" x="404.300482" y="467.292874" style="fill: #e74c3c; stroke: #e74c3c"/>
     <use xlink:href="#m24ea9a3ed0" x="417.107039" y="467.197206" style="fill: #e74c3c; stroke: #e74c3c"/>
     <use xlink:href="#m24ea9a3ed0" x="429.913596" y="467.087036" style="fill: #e74c3c; stroke: #e74c3c"/>
     <use xlink:href="#m24ea9a3ed0" x="442.720154" y="467.175608" style="fill: #e74c3c; stroke: #e74c3c"/>
     <use xlink:href="#m24ea9a3ed0" x="455.526711" y="467.178783" style="fill: #e74c3c; stroke: #e74c3c"/>
     <use xlink:href="#m24ea9a3ed0" x="468.333268" y="467.097977" style="fill: #e74c3c; stroke: #e74c3c"/>
     <use xlink:href="#m24ea9a3ed0" x="481.139826" y="467.249829" style="fill: #e74c3c; stroke: #e74c3c"/>
     <use xlink:href="#m24ea9a3ed0" x="493.946383" y="467.273248" style="fill: #e74c3c; stroke: #e74c3c"/>
     <use xlink:href="#m24ea9a3ed0" x="506.752941" y="467.254621" style="fill: #e74c3c; stroke: #e74c3c"/>
     <use xlink:href="#m24ea9a3ed0" x="519.559498" y="467.264119" style="fill: #e74c3c; stroke: #e74c3c"/>
     <use xlink:href="#m24ea9a3ed0" x="532.366055" y="467.310342" style="fill: #e74c3c; stroke: #e74c3c"/>
     <use xlink:href="#m24ea9a3ed0" x="545.172613" y="467.259924" style="fill: #e74c3c; stroke: #e74c3c"/>
     <use xlink:href="#m24ea9a3ed0" x="557.97917" y="467.024614" style="fill: #e74c3c; stroke: #e74c3c"/>
     <use xlink:href="#m24ea9a3ed0" x="570.785727" y="467.121395" style="fill: #e74c3c; stroke: #e74c3c"/>
     <use xlink:href="#m24ea9a3ed0" x="583.592285" y="467.043247" style="fill: #e74c3c; stroke: #e74c3c"/>
     <use xlink:href="#m24ea9a3ed0" x="596.398842" y="466.886342" style="fill: #e74c3c; stroke: #e74c3c"/>
     <use xlink:href="#m24ea9a3ed0" x="609.2054" y="466.806936" style="fill: #e74c3c; stroke: #e74c3c"/>
     <use xlink:href="#m24ea9a3ed0" x="622.011957" y="466.866094" style="fill: #e74c3c; stroke: #e74c3c"/>
     <use xlink:href="#m24ea9a3ed0" x="634.818514" y="466.912501" style="fill: #e74c3c; stroke: #e74c3c"/>
     <use xlink:href="#m24ea9a3ed0" x="647.625072" y="466.694581" style="fill: #e74c3c; stroke: #e74c3c"/>
     <use xlink:href="#m24ea9a3ed0" x="660.431629" y="466.89427" style="fill: #e74c3c; stroke: #e74c3c"/>
     <use xlink:href="#m24ea9a3ed0" x="673.238186" y="466.895418" style="fill: #e74c3c; stroke: #e74c3c"/>
     <use xlink:href="#m24ea9a3ed0" x="686.044744" y="466.615594" style="fill: #e74c3c; stroke: #e74c3c"/>
     <use xlink:href="#m24ea9a3ed0" x="698.851301" y="466.452731" style="fill: #e74c3c; stroke: #e74c3c"/>
     <use xlink:href="#m24ea9a3ed0" x="711.657859" y="464.826709" style="fill: #e74c3c; stroke: #e74c3c"/>
     <use xlink:href="#m24ea9a3ed0" x="724.464416" y="464.627763" style="fill: #e74c3c; stroke: #e74c3c"/>
     <use xlink:href="#m24ea9a3ed0" x="737.270973" y="464.226639" style="fill: #e74c3c; stroke: #e74c3c"/>
     <use xlink:href="#m24ea9a3ed0" x="750.077531" y="466.977295" style="fill: #e74c3c; stroke: #e74c3c"/>
     <use xlink:href="#m24ea9a3ed0" x="762.884088" y="466.920101" style="fill: #e74c3c; stroke: #e74c3c"/>
     <use xlink:href="#m24ea9a3ed0" x="775.690645" y="467.138117" style="fill: #e74c3c; stroke: #e74c3c"/>
     <use xlink:href="#m24ea9a3ed0" x="788.497203" y="467.292199" style="fill: #e74c3c; stroke: #e74c3c"/>
     <use xlink:href="#m24ea9a3ed0" x="801.30376" y="467.338541" style="fill: #e74c3c; stroke: #e74c3c"/>
     <use xlink:href="#m24ea9a3ed0" x="814.110318" y="467.322217" style="fill: #e74c3c; stroke: #e74c3c"/>
     <use xlink:href="#m24ea9a3ed0" x="826.916875" y="467.228543" style="fill: #e74c3c; stroke: #e74c3c"/>
    </g>
   </g>
   <g id="line2d_32">
    <path d="M 32.910318 467.357812 
L 32.910318 23.837812 
" clip-path="url(#pd470d33408)" style="fill: none; stroke-dasharray: 5.55,2.4; stroke-dashoffset: 0; stroke: #e74c3c; stroke-opacity: 0.5; stroke-width: 1.5"/>
   </g>
   <g id="patch_3">
    <path d="M 45.716875 467.357812 
L 45.716875 23.837812 
" style="fill: none; stroke: #000000; stroke-width: 0.8; stroke-linejoin: miter; stroke-linecap: square"/>
   </g>
   <g id="patch_4">
    <path d="M 826.916875 467.357812 
L 826.916875 23.837812 
" style="fill: none; stroke: #000000; stroke-width: 0.8; stroke-linejoin: miter; stroke-linecap: square"/>
   </g>
   <g id="patch_5">
    <path d="M 45.716875 467.357812 
L 826.916875 467.357812 
" style="fill: none; stroke: #000000; stroke-width: 0.8; stroke-linejoin: miter; stroke-linecap: square"/>
   </g>
   <g id="patch_6">
    <path d="M 45.716875 23.837812 
L 826.916875 23.837812 
" style="fill: none; stroke: #000000; stroke-width: 0.8; stroke-linejoin: miter; stroke-linecap: square"/>
   </g>
   <g id="text_16">
    <!-- Answer Probability by Layer - Croup Case -->
    <g transform="translate(291.654219 17.837812) scale(0.14 -0.14)">
     <defs>
      <path id="DejaVuSans-2d" d="M 313 2009 
L 1997 2009 
L 1997 1497 
L 313 1497 
L 313 2009 
z
" transform="scale(0.015625)"/>
      <path id="DejaVuSans-43" d="M 4122 4306 
L 4122 3641 
Q 3803 3938 3442 4084 
Q 3081 4231 2675 4231 
Q 1875 4231 1450 3742 
Q 1025 3253 1025 2328 
Q 1025 1406 1450 917 
Q 1875 428 2675 428 
Q 3081 428 3442 575 
Q 3803 722 4122 1019 
L 4122 359 
Q 3791 134 3420 21 
Q 3050 -91 2638 -91 
Q 1578 -91 968 557 
Q 359 1206 359 2328 
Q 359 3453 968 4101 
Q 1578 4750 2638 4750 
Q 3056 4750 3426 4639 
Q 3797 4528 4122 4306 
z
" transform="scale(0.015625)"/>
      <path id="DejaVuSans-75" d="M 544 1381 
L 544 3500 
L 1119 3500 
L 1119 1403 
Q 1119 906 1312 657 
Q 1506 409 1894 409 
Q 2359 409 2629 706 
Q 2900 1003 2900 1516 
L 2900 3500 
L 3475 3500 
L 3475 0 
L 2900 0 
L 2900 538 
Q 2691 219 2414 64 
Q 2138 -91 1772 -91 
Q 1169 -91 856 284 
Q 544 659 544 1381 
z
M 1991 3584 
L 1991 3584 
z
" transform="scale(0.015625)"/>
      <path id="DejaVuSans-70" d="M 1159 525 
L 1159 -1331 
L 581 -1331 
L 581 3500 
L 1159 3500 
L 1159 2969 
Q 1341 3281 1617 3432 
Q 1894 3584 2278 3584 
Q 2916 3584 3314 3078 
Q 3713 2572 3713 1747 
Q 3713 922 3314 415 
Q 2916 -91 2278 -91 
Q 1894 -91 1617 61 
Q 1341 213 1159 525 
z
M 3116 1747 
Q 3116 2381 2855 2742 
Q 2594 3103 2138 3103 
Q 1681 3103 1420 2742 
Q 1159 2381 1159 1747 
Q 1159 1113 1420 752 
Q 1681 391 2138 391 
Q 2594 391 2855 752 
Q 3116 1113 3116 1747 
z
" transform="scale(0.015625)"/>
     </defs>
     <use xlink:href="#DejaVuSans-41"/>
     <use xlink:href="#DejaVuSans-6e" transform="translate(68.408203 0)"/>
     <use xlink:href="#DejaVuSans-73" transform="translate(131.787109 0)"/>
     <use xlink:href="#DejaVuSans-77" transform="translate(183.886719 0)"/>
     <use xlink:href="#DejaVuSans-65" transform="translate(265.673828 0)"/>
     <use xlink:href="#DejaVuSans-72" transform="translate(327.197266 0)"/>
     <use xlink:href="#DejaVuSans-20" transform="translate(368.310547 0)"/>
     <use xlink:href="#DejaVuSans-50" transform="translate(400.097656 0)"/>
     <use xlink:href="#DejaVuSans-72" transform="translate(458.650391 0)"/>
     <use xlink:href="#DejaVuSans-6f" transform="translate(497.513672 0)"/>
     <use xlink:href="#DejaVuSans-62" transform="translate(558.695312 0)"/>
     <use xlink:href="#DejaVuSans-61" transform="translate(622.171875 0)"/>
     <use xlink:href="#DejaVuSans-62" transform="translate(683.451172 0)"/>
     <use xlink:href="#DejaVuSans-69" transform="translate(746.927734 0)"/>
     <use xlink:href="#DejaVuSans-6c" transform="translate(774.710938 0)"/>
     <use xlink:href="#DejaVuSans-69" transform="translate(802.494141 0)"/>
     <use xlink:href="#DejaVuSans-74" transform="translate(830.277344 0)"/>
     <use xlink:href="#DejaVuSans-79" transform="translate(869.486328 0)"/>
     <use xlink:href="#DejaVuSans-20" transform="translate(928.666016 0)"/>
     <use xlink:href="#DejaVuSans-62" transform="translate(960.453125 0)"/>
     <use xlink:href="#DejaVuSans-79" transform="translate(1023.929688 0)"/>
     <use xlink:href="#DejaVuSans-20" transform="translate(1083.109375 0)"/>
     <use xlink:href="#DejaVuSans-4c" transform="translate(1114.896484 0)"/>
     <use xlink:href="#DejaVuSans-61" transform="translate(1170.609375 0)"/>
     <use xlink:href="#DejaVuSans-79" transform="translate(1231.888672 0)"/>
     <use xlink:href="#DejaVuSans-65" transform="translate(1291.068359 0)"/>
     <use xlink:href="#DejaVuSans-72" transform="translate(1352.591797 0)"/>
     <use xlink:href="#DejaVuSans-20" transform="translate(1393.705078 0)"/>
     <use xlink:href="#DejaVuSans-2d" transform="translate(1425.492188 0)"/>
     <use xlink:href="#DejaVuSans-20" transform="translate(1461.576172 0)"/>
     <use xlink:href="#DejaVuSans-43" transform="translate(1493.363281 0)"/>
     <use xlink:href="#DejaVuSans-72" transform="translate(1563.1875 0)"/>
     <use xlink:href="#DejaVuSans-6f" transform="translate(1602.050781 0)"/>
     <use xlink:href="#DejaVuSans-75" transform="translate(1663.232422 0)"/>
     <use xlink:href="#DejaVuSans-70" transform="translate(1726.611328 0)"/>
     <use xlink:href="#DejaVuSans-20" transform="translate(1790.087891 0)"/>
     <use xlink:href="#DejaVuSans-43" transform="translate(1821.875 0)"/>
     <use xlink:href="#DejaVuSans-61" transform="translate(1891.699219 0)"/>
     <use xlink:href="#DejaVuSans-73" transform="translate(1952.978516 0)"/>
     <use xlink:href="#DejaVuSans-65" transform="translate(2005.078125 0)"/>
    </g>
   </g>
   <g id="PathCollection_1">
    <defs>
     <path id="ma90854e8eb" d="M 0 5 
C 1.326016 5 2.597899 4.473168 3.535534 3.535534 
C 4.473168 2.597899 5 1.326016 5 0 
C 5 -1.326016 4.473168 -2.597899 3.535534 -3.535534 
C 2.597899 -4.473168 1.326016 -5 0 -5 
C -1.326016 -5 -2.597899 -4.473168 -3.535534 -3.535534 
C -4.473168 -2.597899 -5 -1.326016 -5 0 
C -5 1.326016 -4.473168 2.597899 -3.535534 3.535534 
C -2.597899 4.473168 -1.326016 5 0 5 
z
" style="stroke: #000000"/>
    </defs>
    <g clip-path="url(#pd470d33408)">
     <use xlink:href="#ma90854e8eb" x="32.910318" y="467.287141" style="fill: #2ecc71; stroke: #000000"/>
    </g>
   </g>
   <g id="PathCollection_2">
    <defs>
     <path id="mfd482b5396" d="M 0 5 
C 1.326016 5 2.597899 4.473168 3.535534 3.535534 
C 4.473168 2.597899 5 1.326016 5 0 
C 5 -1.326016 4.473168 -2.597899 3.535534 -3.535534 
C 2.597899 -4.473168 1.326016 -5 0 -5 
C -1.326016 -5 -2.597899 -4.473168 -3.535534 -3.535534 
C -4.473168 -2.597899 -5 -1.326016 -5 0 
C -5 1.326016 -4.473168 2.597899 -3.535534 3.535534 
C -2.597899 4.473168 -1.326016 5 0 5 
z
" style="stroke: #000000"/>
    </defs>
    <g clip-path="url(#pd470d33408)">
     <use xlink:href="#mfd482b5396" x="212.202121" y="467.357812" style="fill: #3498db; stroke: #000000"/>
    </g>
   </g>
   <g id="PathCollection_3">
    <defs>
     <path id="mad0e61214e" d="M 0 5 
C 1.326016 5 2.597899 4.473168 3.535534 3.535534 
C 4.473168 2.597899 5 1.326016 5 0 
C 5 -1.326016 4.473168 -2.597899 3.535534 -3.535534 
C 2.597899 -4.473168 1.326016 -5 0 -5 
C -1.326016 -5 -2.597899 -4.473168 -3.535534 -3.535534 
C -4.473168 -2.597899 -5 -1.326016 -5 0 
C -5 1.326016 -4.473168 2.597899 -3.535534 3.535534 
C -2.597899 4.473168 -1.326016 5 0 5 
z
" style="stroke: #000000"/>
    </defs>
    <g clip-path="url(#pd470d33408)">
     <use xlink:href="#mad0e61214e" x="32.910318" y="467.228543" style="fill: #e74c3c; stroke: #000000"/>
    </g>
   </g>
   <g id="legend_1">
    <g id="patch_7">
     <path d="M 52.716875 75.872187 
L 172.537188 75.872187 
Q 174.537188 75.872187 174.537188 73.872187 
L 174.537188 30.837812 
Q 174.537188 28.837812 172.537188 28.837812 
L 52.716875 28.837812 
Q 50.716875 28.837812 50.716875 30.837812 
L 50.716875 73.872187 
Q 50.716875 75.872187 52.716875 75.872187 
z
" style="fill: #ffffff; opacity: 0.8; stroke: #cccccc; stroke-linejoin: miter"/>
    </g>
    <g id="line2d_33">
     <path d="M 54.716875 36.93625 
L 64.716875 36.93625 
L 74.716875 36.93625 
" style="fill: none; stroke: #2ecc71; stroke-width: 2; stroke-linecap: square"/>
     <g>
      <use xlink:href="#m5167d2f0da" x="64.716875" y="36.93625" style="fill: #2ecc71; stroke: #2ecc71"/>
     </g>
    </g>
    <g id="text_17">
     <!-- Contrarian -->
     <g transform="translate(82.716875 40.43625) scale(0.1 -0.1)">
      <use xlink:href="#DejaVuSans-43"/>
      <use xlink:href="#DejaVuSans-6f" transform="translate(69.824219 0)"/>
      <use xlink:href="#DejaVuSans-6e" transform="translate(131.005859 0)"/>
      <use xlink:href="#DejaVuSans-74" transform="translate(194.384766 0)"/>
      <use xlink:href="#DejaVuSans-72" transform="translate(233.59375 0)"/>
      <use xlink:href="#DejaVuSans-61" transform="translate(274.707031 0)"/>
      <use xlink:href="#DejaVuSans-72" transform="translate(335.986328 0)"/>
      <use xlink:href="#DejaVuSans-69" transform="translate(377.099609 0)"/>
      <use xlink:href="#DejaVuSans-61" transform="translate(404.882812 0)"/>
      <use xlink:href="#DejaVuSans-6e" transform="translate(466.162109 0)"/>
     </g>
    </g>
    <g id="line2d_34">
     <path d="M 54.716875 51.614375 
L 64.716875 51.614375 
L 74.716875 51.614375 
" style="fill: none; stroke: #3498db; stroke-width: 2; stroke-linecap: square"/>
     <g>
      <use xlink:href="#m3af97c3abf" x="64.716875" y="51.614375" style="fill: #3498db; stroke: #3498db"/>
     </g>
    </g>
    <g id="text_18">
     <!-- Chain Of Thought -->
     <g transform="translate(82.716875 55.114375) scale(0.1 -0.1)">
      <defs>
       <path id="DejaVuSans-68" d="M 3513 2113 
L 3513 0 
L 2938 0 
L 2938 2094 
Q 2938 2591 2744 2837 
Q 2550 3084 2163 3084 
Q 1697 3084 1428 2787 
Q 1159 2491 1159 1978 
L 1159 0 
L 581 0 
L 581 4863 
L 1159 4863 
L 1159 2956 
Q 1366 3272 1645 3428 
Q 1925 3584 2291 3584 
Q 2894 3584 3203 3211 
Q 3513 2838 3513 2113 
z
" transform="scale(0.015625)"/>
       <path id="DejaVuSans-4f" d="M 2522 4238 
Q 1834 4238 1429 3725 
Q 1025 3213 1025 2328 
Q 1025 1447 1429 934 
Q 1834 422 2522 422 
Q 3209 422 3611 934 
Q 4013 1447 4013 2328 
Q 4013 3213 3611 3725 
Q 3209 4238 2522 4238 
z
M 2522 4750 
Q 3503 4750 4090 4092 
Q 4678 3434 4678 2328 
Q 4678 1225 4090 567 
Q 3503 -91 2522 -91 
Q 1538 -91 948 565 
Q 359 1222 359 2328 
Q 359 3434 948 4092 
Q 1538 4750 2522 4750 
z
" transform="scale(0.015625)"/>
       <path id="DejaVuSans-66" d="M 2375 4863 
L 2375 4384 
L 1825 4384 
Q 1516 4384 1395 4259 
Q 1275 4134 1275 3809 
L 1275 3500 
L 2222 3500 
L 2222 3053 
L 1275 3053 
L 1275 0 
L 697 0 
L 697 3053 
L 147 3053 
L 147 3500 
L 697 3500 
L 697 3744 
Q 697 4328 969 4595 
Q 1241 4863 1831 4863 
L 2375 4863 
z
" transform="scale(0.015625)"/>
       <path id="DejaVuSans-54" d="M -19 4666 
L 3928 4666 
L 3928 4134 
L 2272 4134 
L 2272 0 
L 1638 0 
L 1638 4134 
L -19 4134 
L -19 4666 
z
" transform="scale(0.015625)"/>
       <path id="DejaVuSans-67" d="M 2906 1791 
Q 2906 2416 2648 2759 
Q 2391 3103 1925 3103 
Q 1463 3103 1205 2759 
Q 947 2416 947 1791 
Q 947 1169 1205 825 
Q 1463 481 1925 481 
Q 2391 481 2648 825 
Q 2906 1169 2906 1791 
z
M 3481 434 
Q 3481 -459 3084 -895 
Q 2688 -1331 1869 -1331 
Q 1566 -1331 1297 -1286 
Q 1028 -1241 775 -1147 
L 775 -588 
Q 1028 -725 1275 -790 
Q 1522 -856 1778 -856 
Q 2344 -856 2625 -561 
Q 2906 -266 2906 331 
L 2906 616 
Q 2728 306 2450 153 
Q 2172 0 1784 0 
Q 1141 0 747 490 
Q 353 981 353 1791 
Q 353 2603 747 3093 
Q 1141 3584 1784 3584 
Q 2172 3584 2450 3431 
Q 2728 3278 2906 2969 
L 2906 3500 
L 3481 3500 
L 3481 434 
z
" transform="scale(0.015625)"/>
      </defs>
      <use xlink:href="#DejaVuSans-43"/>
      <use xlink:href="#DejaVuSans-68" transform="translate(69.824219 0)"/>
      <use xlink:href="#DejaVuSans-61" transform="translate(133.203125 0)"/>
      <use xlink:href="#DejaVuSans-69" transform="translate(194.482422 0)"/>
      <use xlink:href="#DejaVuSans-6e" transform="translate(222.265625 0)"/>
      <use xlink:href="#DejaVuSans-20" transform="translate(285.644531 0)"/>
      <use xlink:href="#DejaVuSans-4f" transform="translate(317.431641 0)"/>
      <use xlink:href="#DejaVuSans-66" transform="translate(396.142578 0)"/>
      <use xlink:href="#DejaVuSans-20" transform="translate(431.347656 0)"/>
      <use xlink:href="#DejaVuSans-54" transform="translate(463.134766 0)"/>
      <use xlink:href="#DejaVuSans-68" transform="translate(524.21875 0)"/>
      <use xlink:href="#DejaVuSans-6f" transform="translate(587.597656 0)"/>
      <use xlink:href="#DejaVuSans-75" transform="translate(648.779297 0)"/>
      <use xlink:href="#DejaVuSans-67" transform="translate(712.158203 0)"/>
      <use xlink:href="#DejaVuSans-68" transform="translate(775.634766 0)"/>
      <use xlink:href="#DejaVuSans-74" transform="translate(839.013672 0)"/>
     </g>
    </g>
    <g id="line2d_35">
     <path d="M 54.716875 66.2925 
L 64.716875 66.2925 
L 74.716875 66.2925 
" style="fill: none; stroke: #e74c3c; stroke-width: 2; stroke-linecap: square"/>
     <g>
      <use xlink:href="#m24ea9a3ed0" x="64.716875" y="66.2925" style="fill: #e74c3c; stroke: #e74c3c"/>
     </g>
    </g>
    <g id="text_19">
     <!-- Direct Answer -->
     <g transform="translate(82.716875 69.7925) scale(0.1 -0.1)">
      <defs>
       <path id="DejaVuSans-44" d="M 1259 4147 
L 1259 519 
L 2022 519 
Q 2988 519 3436 956 
Q 3884 1394 3884 2338 
Q 3884 3275 3436 3711 
Q 2988 4147 2022 4147 
L 1259 4147 
z
M 628 4666 
L 1925 4666 
Q 3281 4666 3915 4102 
Q 4550 3538 4550 2338 
Q 4550 1131 3912 565 
Q 3275 0 1925 0 
L 628 0 
L 628 4666 
z
" transform="scale(0.015625)"/>
       <path id="DejaVuSans-63" d="M 3122 3366 
L 3122 2828 
Q 2878 2963 2633 3030 
Q 2388 3097 2138 3097 
Q 1578 3097 1268 2742 
Q 959 2388 959 1747 
Q 959 1106 1268 751 
Q 1578 397 2138 397 
Q 2388 397 2633 464 
Q 2878 531 3122 666 
L 3122 134 
Q 2881 22 2623 -34 
Q 2366 -91 2075 -91 
Q 1284 -91 818 406 
Q 353 903 353 1747 
Q 353 2603 823 3093 
Q 1294 3584 2113 3584 
Q 2378 3584 2631 3529 
Q 2884 3475 3122 3366 
z
" transform="scale(0.015625)"/>
      </defs>
      <use xlink:href="#DejaVuSans-44"/>
      <use xlink:href="#DejaVuSans-69" transform="translate(77.001953 0)"/>
      <use xlink:href="#DejaVuSans-72" transform="translate(104.785156 0)"/>
      <use xlink:href="#DejaVuSans-65" transform="translate(143.648438 0)"/>
      <use xlink:href="#DejaVuSans-63" transform="translate(205.171875 0)"/>
      <use xlink:href="#DejaVuSans-74" transform="translate(260.152344 0)"/>
      <use xlink:href="#DejaVuSans-20" transform="translate(299.361328 0)"/>
      <use xlink:href="#DejaVuSans-41" transform="translate(331.148438 0)"/>
      <use xlink:href="#DejaVuSans-6e" transform="translate(399.556641 0)"/>
      <use xlink:href="#DejaVuSans-73" transform="translate(462.935547 0)"/>
      <use xlink:href="#DejaVuSans-77" transform="translate(515.035156 0)"/>
      <use xlink:href="#DejaVuSans-65" transform="translate(596.822266 0)"/>
      <use xlink:href="#DejaVuSans-72" transform="translate(658.345703 0)"/>
     </g>
    </g>
   </g>
  </g>
 </g>
 <defs>
  <clipPath id="pd470d33408">
   <rect x="45.716875" y="23.837812" width="781.2" height="443.52"/>
  </clipPath>
 </defs>
</svg>
